<svg xmlns="http://www.w3.org/2000/svg" width="110" height="60" viewBox="0 0 110 60">
  <g fill="none" fill-rule="evenodd">
    <rect width="110" height="60" fill="#EC472D" rx="4"/>
    <g fill="#FFF" transform="translate(24 14)">
      <rect width="61" height="30" fill-rule="nonzero" opacity="0"/>
      <path fill-rule="nonzero" d="M20.2256863 26.322L19.7472549 24.522C25.5065686 23.0778802 31.3723015 22.1007312 37.2877451 21.6 42.7136645 21.2296789 48.1583943 21.2296789 53.5843137 21.6L53.4467647 23.4C48.1163952 23.0369698 42.7676244 23.0369698 37.4372549 23.4 31.6312905 23.9097007 25.8755624 24.8868479 20.2256863 26.322zM57.9021569 15.558C57.1380107 14.7432782 56.7666621 13.6343459 56.8854902 12.522 58.3447059 11.49 59.4869608 9.762 59.7022549 7.032L57.0290196 7.266C56.8555882 9.27 55.9166667 10.548 53.9491176 11.052L54.7086275 3 52.1071569 3.222 50.7137255 17.946 53.3151961 17.712 53.6919608 13.752C53.9072549 13.722 54.1285294 13.68 54.3438235 13.632 54.4797874 15.0376419 55.086988 16.3554414 56.0661765 17.37 57.21137 18.5342001 58.7716438 19.1927432 60.4019608 19.2L60.6052941 16.62C59.5944895 16.6691625 58.6108999 16.2827329 57.9021569 15.558z"/>
      <path d="M41.0733333 8.868L43.6987255 8.658C43.4654902 11.268 43.1006863 14.37 43.1006863 15.138 43.1006863 15.738 43.280098 16.002 43.5492157 16.104 43.9917647 16.278 44.4522549 15.954 44.8589216 15.456 45.3433333 14.856 45.8098039 13.272 45.9652941 11.46 46.0789216 10.104 46.0968627 9.78 46.222451 8.424L48.7641176 8.202C48.5727451 10.266 48.357451 12.942 48.2677451 13.914 48.1002941 15.594 48.8657843 15.912 49.4638235 16.314 49.4638235 16.314 48.160098 18.114 48.1122549 18.114 47.3304779 17.9805165 46.6617187 17.4750661 46.3181373 16.758 45.612451 17.856 45.1220588 18.426 43.6269608 18.618 41.2706863 18.924 40.4992157 17.112 40.4872549 15.888 40.5051961 15.126 40.7444118 12.558 41.0733333 8.868zM30.3205882 9.786L32.9519608 9.6C32.7187255 12.21 32.3539216 15.312 32.3539216 16.08 32.3539216 16.68 32.5333333 16.944 32.802451 17.046 33.245 17.22 33.7054902 16.896 34.1121569 16.398 34.5965686 15.798 35.0630392 14.214 35.2185294 12.402 35.3321569 11.046 35.350098 10.722 35.4756863 9.366L38.0173529 9.144C37.8259804 11.208 37.6106863 13.884 37.5209804 14.856 37.3535294 16.536 38.1190196 16.854 38.7170588 17.256 38.7170588 17.256 37.4133333 19.056 37.3654902 19.056 36.5837132 18.9225165 35.914954 18.4170661 35.5713725 17.7 34.8656863 18.798 34.3752941 19.368 32.8801961 19.56 30.5239216 19.866 29.752451 18.054 29.7404902 16.83 29.752451 16.044 29.9976471 13.476 30.3205882 9.786zM19.9505882 10.71L22.5759804 10.5C22.3427451 13.11 21.9779412 16.212 21.9779412 16.98 21.9779412 17.58 22.1573529 17.844 22.4264706 17.946 22.8690196 18.12 23.3295098 17.796 23.7361765 17.298 24.2205882 16.698 24.6870588 15.114 24.842549 13.302 24.9561765 11.946 24.9741176 11.622 25.0997059 10.266L27.6413725 10.044C27.45 12.108 27.2347059 14.784 27.145 15.756 26.977549 17.436 27.7430392 17.754 28.3410784 18.156 28.3410784 18.156 27.0373529 19.956 26.9895098 19.956 26.2077328 19.8225165 25.5389736 19.3170661 25.1953922 18.6 24.4897059 19.698 23.9993137 20.268 22.5042157 20.46 20.1479412 20.766 19.3764706 18.954 19.3645098 17.73 19.382451 16.968 19.6216667 14.4 19.9505882 10.71z"/>
      <path fill-rule="nonzero" d="M16.332451,16.8 C15.9755902,16.4594387 15.5729957,16.1706398 15.1363725,15.942 C16.2621013,14.6037937 16.8486787,12.8917919 16.7809804,11.142 C16.6135294,8.4 14.0658824,5.568 9.49088235,5.568 C4.4972549,5.568 0.753529412,8.952 0.598039216,9.096 L2.33235294,10.998 C2.3622549,10.998 5.49,8.142 9.50882353,8.142 C12.8339216,8.142 14.1496078,10.044 14.2213725,11.316 C14.2811765,12.348 13.7788235,15.096 10.842451,15.444 L8.18715686,15.66 L8.64166667,11.106 L6.04617647,11.328 L4.43147059,27 L5.92656863,26.922 C6.88941176,26.874 11.7514706,26.604 12.8518627,26.322 C13.9522549,26.04 17.6361765,24.876 17.827549,20.742 C17.9400126,19.2700652 17.3917797,17.8245854 16.332451,16.8 Z M12.2598039,23.838 C11.7454902,23.958 9.38921569,24.138 7.29009804,24.264 L7.88813725,18.264 L11.0876471,18 L12.4511765,17.88 C13.2230666,17.8482669 13.9752372,18.1293636 14.5383333,18.66 C15.0594922,19.1745898 15.3210383,19.8978537 15.25,20.628 C15.1483333,22.908 13.1269608,23.634 12.2598039,23.838 Z"/>
    </g>
  </g>
</svg>
