<svg xmlns="http://www.w3.org/2000/svg" width="110" height="60" viewBox="0 0 110 60">
  <g fill="none" fill-rule="evenodd">
    <rect width="110" height="60" fill="#FFF" rx="4"/>
    <g transform="translate(35 15)">
      <path fill="#4AAAF5" fill-rule="nonzero" d="M12.8601226,0.0714637402 C13.371662,0.0149338129 13.8693183,0.00670200195 14.388251,0.00670200195 C22.2693195,0.00670200195 28.5973572,6.48259097 28.6570171,14.625517 C28.6039513,17.1469209 26.9094957,19.1507525 24.6033458,19.1507525 C22.2747963,19.1507525 20.2579081,17.4770666 20.2579081,14.625517 C20.2579081,11.3578539 17.4886675,8.77547045 14.1609414,8.77547045 C10.8332154,8.77547045 8.43817826,11.5742884 8.39331231,14.9276603 C8.39324482,20.8022783 11.7148839,26.3267756 16.3499411,28.7896885 C16.7450464,29.0412908 16.900356,29.0682656 17.2585176,29.2725969 C16.2272804,29.5633327 15.0391019,29.6653925 14.388251,29.6653925 C6.44413687,29.6653925 0,23.1190717 0,14.9276599 C0,7.32520323 5.58532208,0.866000493 12.8601226,0.0714637402 Z"/>
      <path fill="#B1DCFD" d="M21.5099918,0.318345101 C26.8920341,2.43705194 30.4352411,8.6580259 30.4809687,14.9223162 C30.4082735,18.4211762 27.5912144,20.9532246 24.6091123,20.9532268 C21.6270101,20.9532291 18.5347185,18.802512 18.5347185,14.9223162 C18.5347185,12.3299491 16.5968025,10.572117 14.1708905,10.572117 C11.8845065,10.572117 10.1402589,12.4610617 10.1402611,14.9223162 C10.1402631,17.0601649 10.5497861,18.2639028 10.7541729,19.1457989 C10.9585597,20.0276949 11.7680181,21.6717715 11.7879507,21.7117551 C11.8646723,21.8676435 12.6344097,23.302188 13.6140493,24.4982217 C14.5357819,25.6235572 15.670253,26.5167285 15.7549442,26.5855813 C15.8352608,26.6506291 16.4613783,27.1292383 16.7017417,27.29335 C16.7902658,27.3536237 18.3463978,28.3564988 19.8806226,28.8560529 C21.4126683,29.3548975 22.7070683,29.6454686 24.4113038,29.6454686 C32.3339173,29.6454686 38.8396441,23.1135754 38.8396441,14.9223162 C38.8396441,6.73105693 32.529202,0.0174834838 24.4899526,0.0174834838 C23.6328518,0.0174834838 22.326055,0.169152706 21.5099918,0.318345101 Z"/>
    </g>
  </g>
</svg>
