<svg xmlns="http://www.w3.org/2000/svg" xmlns:xlink="http://www.w3.org/1999/xlink" width="880" height="669" viewBox="0 0 880 669">
  <defs>
    <linearGradient id="infin-a" x1="0%" y1="100%" y2="0%">
      <stop offset="0%" stop-color="#E2F1EA"/>
      <stop offset="100%" stop-color="#EFF3F1"/>
    </linearGradient>
    <path id="infin-b" d="M2.96708012,0.477595089 L293.56708,0.477595089 L293.56708,39.4775951 L2.96708012,39.4775951 C1.64159672,39.4775951 0.56708012,38.4030785 0.56708012,37.0775951 L0.56708012,2.87759509 C0.56708012,1.55211169 1.64159672,0.477595089 2.96708012,0.477595089 Z"/>
    <rect id="infin-c" width="74.4" height="26.4" rx="13.2"/>
    <rect id="infin-d" width="80.8" height="26.4" rx="13.2"/>
    <rect id="infin-e" width="112" height="26.4" rx="13.2"/>
    <rect id="infin-f" width="66.4" height="26.4" rx="13.2"/>
    <rect id="infin-g" width="111.2" height="26.4" rx="13.2"/>
    <path id="infin-h" d="M3.2,0.561357702 L476.8,0.561357702 C478.567311,0.561357702 480,1.9940465 480,3.7613577 L480,326.361358 C480,328.128669 478.567311,329.561358 476.8,329.561358 L3.2,329.561358 C1.4326888,329.561358 -1.63236925e-14,328.128669 -4.79338791e-14,326.361358 L-3.63875596e-14,3.7613577 C-3.66039928e-14,1.9940465 1.4326888,0.561357702 3.2,0.561357702 Z"/>
    <filter id="infin-i" width="105.8%" height="108.5%" x="-2.9%" y="-3.3%" filterUnits="objectBoundingBox">
      <feMorphology in="SourceAlpha" operator="dilate" radius=".008" result="shadowSpreadOuter1"/>
      <feOffset dy="3" in="shadowSpreadOuter1" result="shadowOffsetOuter1"/>
      <feGaussianBlur in="shadowOffsetOuter1" result="shadowBlurOuter1" stdDeviation="4.5"/>
      <feComposite in="shadowBlurOuter1" in2="SourceAlpha" operator="out" result="shadowBlurOuter1"/>
      <feColorMatrix in="shadowBlurOuter1" values="0 0 0 0 0.405856372   0 0 0 0 0.432849702   0 0 0 0 0.419353037  0 0 0 0.34 0"/>
    </filter>
    <linearGradient id="infin-k" x1="50%" x2="50%" y1="0%" y2="100%">
      <stop offset="0%" stop-color="#0A582B"/>
      <stop offset="100%" stop-color="#0A582B"/>
    </linearGradient>
    <linearGradient id="infin-l" x1="7.66%" x2="90.711%" y1="10.134%" y2="83.971%">
      <stop offset="0%" stop-color="#E5F1EB" stop-opacity="0"/>
      <stop offset="43.157%" stop-color="#E5F1EB" stop-opacity=".81"/>
      <stop offset="74.996%" stop-color="#E5F1EB"/>
      <stop offset="100%" stop-color="#E4F2EB"/>
    </linearGradient>
    <filter id="infin-m" width="100%" height="100%" x="0%" y="0%" filterUnits="objectBoundingBox">
      <feGaussianBlur in="SourceGraphic"/>
    </filter>
    <linearGradient id="infin-n" x1="50%" x2="50%" y1="0%" y2="100%">
      <stop offset="0%" stop-color="#ECEBEC"/>
      <stop offset="100%" stop-color="#DEDDDE"/>
    </linearGradient>
    <rect id="infin-o" width="800" height="25" x="71" y="8" rx="3.385"/>
  </defs>
  <g fill="none" fill-rule="evenodd" transform="translate(0 -41)">
    <g transform="translate(0 81)">
      <rect width="880" height="423" fill="url(#infin-a)" transform="matrix(-1 0 0 1 880 0)"/>
      <rect width="880" height="306.969" y="423" fill="#FFF" transform="rotate(180 440 576.484)"/>
      <g transform="translate(195.433 129.905)">
        <g transform="translate(0 101.618)">
          <use fill="#FFF" xlink:href="#infin-b"/>
          <path stroke="#000" stroke-opacity=".36" stroke-width=".5" d="M293.31708,39.2275951 L293.31708,0.727595089 L2.96708012,0.727595089 C1.77966791,0.727595089 0.81708012,1.69018288 0.81708012,2.87759509 L0.81708012,37.0775951 C0.81708012,38.2650073 1.77966791,39.2275951 2.96708012,39.2275951 L293.31708,39.2275951 Z"/>
          <path fill="#000" d="M16.8886337,14.7106151 L19.1768821,19.3531905 L21.4651306,14.7106151 L22.663737,14.7106151 L19.7398639,20.627623 L19.7398639,24.0321784 L18.6139004,24.0321784 L18.6139004,20.627623 L15.6900273,14.7106151 L16.8886337,14.7106151 Z M26.69542,24.1778278 C24.7522249,24.1778278 23.5717793,22.6849212 23.5717793,20.5365921 C23.5717793,18.4610878 24.7522249,16.949975 26.69542,16.949975 C28.6749366,16.949975 29.8917036,18.3154384 29.8917036,20.5365921 C29.8917036,22.7759521 28.6749366,24.1778278 26.69542,24.1778278 Z M26.69542,23.2129004 C28.0029906,23.2129004 28.8202222,22.2115606 28.8202222,20.5365921 C28.8202222,18.8798299 28.0029906,17.9149025 26.69542,17.9149025 C25.4423316,17.9149025 24.6432607,19.0254793 24.6432607,20.5365921 C24.6432607,22.0294988 25.3696888,23.2129004 26.69542,23.2129004 Z M35.8484211,21.2648393 L35.8484211,17.0410059 L36.9199026,17.0410059 L36.9199026,24.0321784 L35.8484211,24.0321784 L35.8484211,23.0490448 L35.7757783,23.0490448 C35.430725,23.5770239 34.758779,24.1232093 33.7054583,24.1232093 C32.688459,24.1232093 31.4535312,23.3221374 31.4535312,21.4833134 L31.4535312,17.0410059 L32.5250126,17.0410059 L32.5250126,21.4833134 C32.5250126,22.5028594 33.1606372,23.0854571 34.0505116,23.0854571 C34.8495825,23.0854571 35.8484211,22.5756841 35.8484211,21.2648393 Z M42.3136381,16.9681812 L42.3136381,18.0787581 C42.2046739,18.0605519 42.0230669,18.0423457 41.7506563,18.0423457 C40.5883714,18.0423457 39.8982647,19.1165102 39.880104,20.0268191 L39.880104,24.0321784 L38.8086226,24.0321784 L38.8086226,17.0410059 L39.880104,17.0410059 L39.880104,18.2426137 L39.9527468,18.2426137 C40.1525145,17.5689851 40.9697461,16.9317688 41.7869777,16.9317688 C42.0412276,16.9317688 42.2409953,16.949975 42.3136381,16.9681812 Z M49.9774623,24.1778278 C47.9797851,24.1778278 46.7811787,22.6849212 46.7811787,20.5365921 C46.7811787,18.4428816 47.9979458,16.949975 49.8684981,16.949975 C51.6119255,16.949975 52.8831747,17.969521 52.8831747,20.5365921 L52.8831747,20.9917466 L47.8753611,20.9917466 C48.0161065,22.3253492 48.7833962,23.2129004 49.9774623,23.2129004 C50.8310153,23.2129004 51.4121578,22.8123644 51.702729,22.156942 L52.6834069,22.5938903 C52.2838715,23.5224054 51.3758364,24.1778278 49.9774623,24.1778278 Z M49.8866588,17.9149025 C48.8015569,17.9149025 48.029727,18.788799 47.8799012,20.0632315 L51.8480146,20.0632315 C51.8480146,18.6795619 51.1034259,17.9149025 49.8866588,17.9149025 Z M59.4755165,19.6444894 L59.4755165,24.0321784 L58.3858744,24.0321784 L58.3858744,19.4624276 C58.3858744,18.4064693 57.8955355,17.9877272 57.1146253,17.9877272 C56.2973937,17.9877272 55.5164835,18.7159743 55.5164835,19.8629635 L55.5164835,24.0321784 L54.4450021,24.0321784 L54.4450021,17.0410059 L55.5164835,17.0410059 L55.5164835,18.2244075 L55.5891263,18.2244075 C55.788894,17.6236036 56.5153221,16.949975 57.4051965,16.949975 C58.2769102,16.949975 58.8943741,17.5143665 59.203106,18.2062013 L59.2757488,18.2062013 C59.4755165,17.6236036 60.2745874,16.949975 61.2915868,16.949975 C62.4538717,16.949975 63.3982282,17.7510468 63.3982282,19.4624276 L63.3982282,24.0321784 L62.3267468,24.0321784 L62.3267468,19.4260153 C62.3267468,18.3336446 61.5458366,17.9877272 60.9646941,17.9877272 C60.0203376,17.9877272 59.4755165,18.6613558 59.4755165,19.6444894 Z M69.4639131,24.0321784 L69.4639131,23.0854571 L69.409431,23.0854571 C69.1915025,23.5406116 68.4650744,24.196034 67.3391109,24.196034 C65.9407368,24.196034 64.9600589,23.3949621 64.9600589,22.1933544 C64.9600589,20.518386 66.5218793,19.9357883 68.9009313,19.9357883 L69.4639131,19.9357883 L69.4639131,19.808345 C69.4639131,18.4246754 68.737485,17.8966963 67.8476106,17.8966963 C67.030379,17.8966963 66.3947544,18.3518507 66.0497011,19.0436855 L65.0508624,18.6613558 C65.6138442,17.1866553 67.0485397,16.949975 67.8294499,16.949975 C69.2278239,16.949975 70.5353945,17.5871912 70.5353945,20.008613 L70.5353945,24.0321784 L69.4639131,24.0321784 Z M69.4639131,20.8460972 L68.9009313,20.8460972 C67.2664681,20.8460972 66.0315404,21.0463651 66.0315404,22.1933544 C66.0315404,23.0672509 66.8124506,23.2311065 67.3027895,23.2311065 C68.5921994,23.2311065 69.4639131,22.4300347 69.4639131,21.5561381 L69.4639131,20.8460972 Z M72.9507747,16.0396661 C72.4785964,16.0396661 72.1880252,15.7119549 72.1880252,15.3114189 C72.1880252,14.9472954 72.4785964,14.5831718 72.9507747,14.5831718 C73.4229529,14.5831718 73.7135242,14.9472954 73.7135242,15.3114189 C73.7135242,15.7119549 73.4229529,16.0396661 72.9507747,16.0396661 Z M73.4955957,17.0410059 L73.4955957,24.0321784 L72.4241143,24.0321784 L72.4241143,17.0410059 L73.4955957,17.0410059 Z M76.455793,14.7106151 L76.455793,24.0321784 L75.3843116,24.0321784 L75.3843116,14.7106151 L76.455793,14.7106151 Z M86.0083285,24.0321784 L86.0083285,23.0854571 L85.9538464,23.0854571 C85.735918,23.5406116 85.0094899,24.196034 83.8835263,24.196034 C82.4851523,24.196034 81.5044744,23.3949621 81.5044744,22.1933544 C81.5044744,20.518386 83.0662948,19.9357883 85.4453467,19.9357883 L86.0083285,19.9357883 L86.0083285,19.808345 C86.0083285,18.4246754 85.2819004,17.8966963 84.392026,17.8966963 C83.5747944,17.8966963 82.9391698,18.3518507 82.5941165,19.0436855 L81.5952779,18.6613558 C82.1582596,17.1866553 83.5929551,16.949975 84.3738653,16.949975 C85.7722394,16.949975 87.0798099,17.5871912 87.0798099,20.008613 L87.0798099,24.0321784 L86.0083285,24.0321784 Z M86.0083285,20.8460972 L85.4453467,20.8460972 C83.8108835,20.8460972 82.5759558,21.0463651 82.5759558,22.1933544 C82.5759558,23.0672509 83.356866,23.2311065 83.8472049,23.2311065 C85.1366148,23.2311065 86.0083285,22.4300347 86.0083285,21.5561381 L86.0083285,20.8460972 Z M94.870758,24.0321784 L93.89008,24.0321784 L93.8401381,23.176488 L93.7266337,23.176488 C93.3634197,23.736328 92.7459558,24.1778278 91.7471172,24.1778278 C89.8765649,24.1778278 88.6416371,22.7395397 88.6416371,20.5365921 C88.6416371,18.3518507 89.8765649,16.949975 91.7471172,16.949975 C92.7141746,16.949975 93.3225581,17.3778202 93.6903123,17.9149025 L93.7992765,17.9149025 L93.7992765,14.7106151 L94.870758,14.7106151 L94.870758,24.0321784 Z M89.7131185,20.5365921 C89.7131185,22.156942 90.5848322,23.2129004 91.7471172,23.2129004 C92.6188309,23.2129004 93.526866,22.6120965 93.7447944,21.7017876 C93.862839,21.2648393 93.8719193,20.7186539 93.8719193,20.5365921 C93.8719193,20.3636334 93.862839,19.8447574 93.7266337,19.3713967 C93.4723839,18.5157063 92.673313,17.9149025 91.7652779,17.9149025 C90.5848322,17.9149025 89.7131185,18.9162423 89.7131185,20.5365921 Z M102.661707,24.0321784 L101.681029,24.0321784 L101.631087,23.176488 L101.517582,23.176488 C101.154368,23.736328 100.536904,24.1778278 99.5380658,24.1778278 C97.6675135,24.1778278 96.4325858,22.7395397 96.4325858,20.5365921 C96.4325858,18.3518507 97.6675135,16.949975 99.5380658,16.949975 C100.505123,16.949975 101.113507,17.3778202 101.481261,17.9149025 L101.590225,17.9149025 L101.590225,14.7106151 L102.661707,14.7106151 L102.661707,24.0321784 Z M97.5040672,20.5365921 C97.5040672,22.156942 98.3757809,23.2129004 99.5380658,23.2129004 C100.40978,23.2129004 101.317815,22.6120965 101.535743,21.7017876 C101.653788,21.2648393 101.662868,20.7186539 101.662868,20.5365921 C101.662868,20.3636334 101.653788,19.8447574 101.517582,19.3713967 C101.263333,18.5157063 100.464262,17.9149025 99.5562265,17.9149025 C98.3757809,17.9149025 97.5040672,18.9162423 97.5040672,20.5365921 Z M108.055443,16.9681812 L108.055443,18.0787581 C107.946478,18.0605519 107.764871,18.0423457 107.492461,18.0423457 C106.330176,18.0423457 105.640069,19.1165102 105.621908,20.0268191 L105.621908,24.0321784 L104.550427,24.0321784 L104.550427,17.0410059 L105.621908,17.0410059 L105.621908,18.2426137 L105.694551,18.2426137 C105.894319,17.5689851 106.711551,16.9317688 107.528782,16.9317688 C107.783032,16.9317688 107.9828,16.949975 108.055443,16.9681812 Z M112.232409,24.1778278 C110.234731,24.1778278 109.036125,22.6849212 109.036125,20.5365921 C109.036125,18.4428816 110.252892,16.949975 112.123444,16.949975 C113.866872,16.949975 115.138121,17.969521 115.138121,20.5365921 L115.138121,20.9917466 L110.130307,20.9917466 C110.271053,22.3253492 111.038342,23.2129004 112.232409,23.2129004 C113.085962,23.2129004 113.667104,22.8123644 113.957675,22.156942 L114.938353,22.5938903 C114.538818,23.5224054 113.630783,24.1778278 112.232409,24.1778278 Z M112.141605,17.9149025 C111.056503,17.9149025 110.284673,18.788799 110.134848,20.0632315 L114.102961,20.0632315 C114.102961,18.6795619 113.358372,17.9149025 112.141605,17.9149025 Z M116.518341,18.9708608 C116.518341,17.8420777 117.607983,16.949975 119.024518,16.949975 C120.204964,16.949975 121.094838,17.4415418 121.494374,18.1879951 L120.713464,18.7523867 C120.422892,18.3154384 119.878071,17.8784901 119.024518,17.8784901 C118.225447,17.8784901 117.607983,18.3154384 117.607983,18.9162423 C117.607983,19.3896029 117.971198,19.7537265 118.770268,19.9539944 L119.805428,20.2088809 C121.076678,20.518386 121.694141,21.137396 121.694141,22.1023235 C121.694141,23.3221374 120.677142,24.1778278 118.951875,24.1778278 C117.77143,24.1778278 116.863395,23.7408795 116.463859,22.97622 L117.299252,22.3754162 C117.571662,22.7941583 118.134644,23.2311065 118.988197,23.2311065 C119.896232,23.2311065 120.586339,22.8123644 120.586339,22.1933544 C120.586339,21.7199937 120.223125,21.3558702 119.514857,21.1738084 L118.352572,20.8825095 C117.099484,20.5730045 116.518341,19.9357883 116.518341,18.9708608 Z M123.156084,18.9708608 C123.156084,17.8420777 124.245726,16.949975 125.662261,16.949975 C126.842707,16.949975 127.732581,17.4415418 128.132117,18.1879951 L127.351207,18.7523867 C127.060635,18.3154384 126.515814,17.8784901 125.662261,17.8784901 C124.86319,17.8784901 124.245726,18.3154384 124.245726,18.9162423 C124.245726,19.3896029 124.60894,19.7537265 125.408011,19.9539944 L126.443171,20.2088809 C127.714421,20.518386 128.331884,21.137396 128.331884,22.1023235 C128.331884,23.3221374 127.314885,24.1778278 125.589618,24.1778278 C124.409173,24.1778278 123.501138,23.7408795 123.101602,22.97622 L123.936995,22.3754162 C124.209405,22.7941583 124.772387,23.2311065 125.62594,23.2311065 C126.533975,23.2311065 127.224082,22.8123644 127.224082,22.1933544 C127.224082,21.7199937 126.860868,21.3558702 126.1526,21.1738084 L124.990315,20.8825095 C123.737227,20.5730045 123.156084,19.9357883 123.156084,18.9708608 Z" opacity=".473"/>
          <g transform="translate(254.121)">
            <path fill="#34A966" d="M0.446127067,0.477595089 L104.046127,0.477595089 C105.37161,0.477595089 106.446127,1.55211169 106.446127,2.87759509 L106.446127,37.0775951 C106.446127,38.4030785 105.37161,39.4775951 104.046127,39.4775951 L0.446127067,39.4775951 L0.446127067,0.477595089 Z"/>
            <path fill="#FFF" d="M37.8468177,16.8646328 C37.7361509,16.0709572 37.1274836,15.5845109 36.1527647,15.5845109 C35.1439944,15.5845109 34.5183015,16.0752243 34.5183015,16.8048938 C34.5183015,17.4364206 35.0503533,17.8033888 36.1314826,18.1234193 L36.7912268,18.3154376 C38.4342029,18.806151 39.2939986,19.505951 39.2939986,20.7860729 C39.2939986,22.253946 38.2086129,23.3719192 36.1229698,23.3719192 C34.3523013,23.3719192 32.9476845,22.428896 32.8795819,20.7434022 L34.2756858,20.7434022 C34.3650705,21.6608229 35.1099431,22.1558034 36.186816,22.1558034 C37.2466632,22.1558034 37.9106639,21.5840156 37.9106639,20.8458119 C37.9106639,20.1844156 37.4254326,19.7875778 36.1910724,19.4163425 L35.4334306,19.1987217 C34.0075317,18.7805486 33.1264539,18.1362205 33.1264539,16.817695 C33.1264539,15.3412877 34.4544553,14.3726621 36.1953288,14.3726621 C37.9447152,14.3726621 39.1620498,15.3882255 39.2173831,16.8646328 L37.8468177,16.8646328 Z M41.3626233,15.942945 C40.8731356,15.942945 40.528366,15.5845109 40.528366,15.1578035 C40.528366,14.7481645 40.8731356,14.3726621 41.3626233,14.3726621 C41.8521109,14.3726621 42.1926241,14.7481645 42.1926241,15.1578035 C42.1926241,15.5845109 41.8521109,15.942945 41.3626233,15.942945 Z M42.0351368,16.6768816 L42.0351368,23.2311058 L40.6986226,23.2311058 L40.6986226,16.6768816 L42.0351368,16.6768816 Z M47.9472994,16.7110181 L49.2199673,16.7110181 L49.2199673,23.2183046 C49.2199673,24.8056557 47.943043,25.7060082 46.2532464,25.7060082 C44.9592964,25.7060082 44.1250391,25.1555557 43.733449,24.6563082 L44.5081164,23.8242289 C44.8060654,24.1101228 45.2827839,24.588035 46.2319643,24.588035 C47.2407346,24.588035 47.891966,24.1271911 47.9004788,23.0390875 L47.9004788,22.5227717 L47.8323762,22.5227717 C47.4833502,22.9281436 46.968324,23.2140375 46.2191951,23.2140375 C44.5081164,23.2140375 43.3205768,21.9040461 43.3205768,19.8857205 C43.3205768,17.9356681 44.4953472,16.5915401 46.2149387,16.5915401 C47.0108882,16.5915401 47.5344272,16.8945023 47.8706839,17.3212096 L47.9260173,17.3212096 L47.9472994,16.7110181 Z M44.6230396,19.8857205 C44.6230396,21.255451 45.2870403,22.0832631 46.3043234,22.0832631 C47.0917601,22.0832631 47.7302222,21.549879 47.891966,20.8799485 C47.9856071,20.5343156 48.0026328,20.0734717 48.0068892,19.8643851 C48.0026328,19.6723668 47.9898635,19.3053986 47.8877096,18.9384303 C47.7089402,18.3410401 47.1726319,17.7095132 46.3085798,17.7095132 C45.2615018,17.7095132 44.6230396,18.5842632 44.6230396,19.8857205 Z M52.0887976,19.4931498 L52.0887976,23.2311058 L50.7522834,23.2311058 L50.7522834,16.6768816 L52.0377206,16.6768816 L52.0377206,17.6412401 L52.1058232,17.6412401 C52.4335672,17.0438498 53.0762858,16.5915401 53.9786457,16.5915401 C55.1661853,16.5915401 56.1196222,17.3382779 56.1196222,19.0920449 L56.1196222,23.2311058 L54.783108,23.2311058 L54.783108,19.1603181 C54.783108,18.2941022 54.2510562,17.7692523 53.5274657,17.7692523 C52.7825932,17.7692523 52.0887976,18.3709096 52.0887976,19.4931498 Z M66.5052834,14.4921402 L67.8801053,14.4921402 L67.8801053,20.2484217 C67.8801053,22.2027412 66.2967191,23.3505838 64.4238967,23.3505838 C62.4914845,23.3505838 61.0102522,22.2027412 61.0102522,20.2484217 L61.0102522,14.4921402 L62.3850741,14.4921402 L62.3850741,20.2484217 C62.3850741,21.3706619 63.3002032,22.1216668 64.4366659,22.1216668 C65.5646158,22.1216668 66.5052834,21.3706619 66.5052834,20.2484217 L66.5052834,14.4921402 Z M69.5018075,25.6889399 L69.5018075,16.6768816 L70.7744754,16.6768816 L70.8085267,17.3126754 L70.8979114,17.3126754 C71.242681,16.8902352 71.7619636,16.5915401 72.5323746,16.5915401 C74.2391969,16.5915401 75.401198,17.9484693 75.401198,19.9582607 C75.401198,21.9893875 74.2391969,23.363385 72.5238618,23.363385 C71.7321687,23.363385 71.2043733,23.0561558 70.8553473,22.6209143 L70.8383216,22.6209143 L70.8383216,25.6889399 L69.5018075,25.6889399 Z M70.8553473,20.9908924 C71.017091,21.6736241 71.6555532,22.2240765 72.4429899,22.2240765 C73.460273,22.2240765 74.0987352,21.3109229 74.0987352,19.9582607 C74.0987352,18.6183998 73.460273,17.7223145 72.4387335,17.7223145 C71.5874506,17.7223145 71.0341167,18.3709096 70.8596037,18.9768339 C70.7617062,19.3395351 70.7446805,19.7491742 70.7404241,19.9497266 C70.7446805,20.1545461 70.770219,20.6324583 70.8553473,20.9908924 Z"/>
          </g>
        </g>
        <path fill="#252C34" d="M20.5655946,0.172716122 L20.5655946,22.311429 L17.1581929,22.311429 L6.87129016,6.26951011 L6.66641474,6.26951011 L6.66641474,22.311429 L3.18353258,22.311429 L3.18353258,0.172716122 L6.60171724,0.172716122 L16.8994029,16.2686846 L17.1042783,16.2686846 L17.1042783,0.172716122 L20.5655946,0.172716122 Z M31.7798489,22.6465365 C26.8951876,22.6465365 23.9838,19.0468337 23.9838,14.095891 C23.9838,9.10170874 26.7981413,5.49119598 31.4240126,5.49119598 C35.7156136,5.49119598 38.6162182,8.17205575 38.6162182,13.8580728 L38.6162182,15.2849821 L27.3480701,15.2849821 C27.7146892,18.0523212 29.3752584,19.7602883 31.8768952,19.7602883 C33.6992081,19.7602883 34.885329,18.9603543 35.661699,17.544255 L38.1525528,19.1657428 C37.1928732,21.1115281 35.0255069,22.6465365 31.7798489,22.6465365 Z M31.4347956,8.35582436 C29.1919489,8.35582436 27.7362551,10.1178411 27.3696359,12.7338413 L35.402909,12.7338413 C35.402909,10.0962212 33.968781,8.35582436 31.4347956,8.35582436 Z M55.4160191,5.70739435 L49.6579415,22.311429 L46.3907176,22.311429 L40.6434229,5.70739435 L44.0723905,5.70739435 L47.9434577,17.6523542 L48.1159843,17.6523542 L51.9762686,5.70739435 L55.4160191,5.70739435 Z M65.239272,22.6465365 C60.3546106,22.6465365 57.443223,19.0468337 57.443223,14.095891 C57.443223,9.10170874 60.2575643,5.49119598 64.8834357,5.49119598 C69.1750366,5.49119598 72.0756413,8.17205575 72.0756413,13.8580728 L72.0756413,15.2849821 L60.8074931,15.2849821 C61.1741123,18.0523212 62.8346815,19.7602883 65.3363182,19.7602883 C67.1586312,19.7602883 68.344752,18.9603543 69.121122,17.544255 L71.6119758,19.1657428 C70.6522962,21.1115281 68.4849299,22.6465365 65.239272,22.6465365 Z M64.8942186,8.35582436 C62.6513719,8.35582436 61.1956781,10.1178411 60.8290589,12.7338413 L68.862332,12.7338413 C68.862332,10.0962212 67.4282041,8.35582436 64.8942186,8.35582436 Z M83.8506029,5.54524558 L83.8506029,8.88551037 C83.5918128,8.84227069 83.1497133,8.80984094 82.6321332,8.80984094 C80.195194,8.80984094 78.6748027,10.8312957 78.642454,12.7662711 L78.642454,22.311429 L75.2566181,22.311429 L75.2566181,5.70739435 L78.642454,5.70739435 L78.642454,8.30177477 L78.8041977,8.30177477 C79.2786461,6.87486554 81.0254786,5.45876623 82.7723112,5.45876623 C83.2036278,5.45876623 83.6349445,5.49119598 83.8506029,5.54524558 Z M116.08076,5.70739435 L111.379408,22.311429 L108.349409,22.311429 L105.060619,10.7988659 L104.801829,10.7988659 L101.523822,22.311429 L98.4938227,22.311429 L93.7924709,5.70739435 L97.1890897,5.70739435 L100.089694,17.4469658 L100.283787,17.4469658 L103.47553,5.70739435 L106.419267,5.70739435 L109.578661,17.3929162 L109.761971,17.3929162 L112.684141,5.70739435 L116.08076,5.70739435 Z M125.699145,22.6249167 C121.267366,22.6249167 118.248149,19.3819412 118.248149,14.0094117 C118.248149,8.84227069 121.332064,5.49119598 125.688362,5.49119598 C130.098575,5.49119598 133.236404,8.61526241 133.236404,14.0094117 C133.236404,19.5224701 130.174056,22.6249167 125.699145,22.6249167 Z M125.688362,19.7602883 C128.297828,19.7602883 129.947614,17.7496435 129.947614,14.0094117 C129.947614,10.3016097 128.276262,8.35582436 125.688362,8.35582436 C123.175942,8.35582436 121.569288,10.528618 121.569288,14.0094117 C121.569288,17.4793955 123.046547,19.7602883 125.688362,19.7602883 Z M145.022149,5.54524558 L145.022149,8.88551037 C144.763359,8.84227069 144.321259,8.80984094 143.803679,8.80984094 C141.36674,8.80984094 139.846349,10.8312957 139.814,12.7662711 L139.814,22.311429 L136.428164,22.311429 L136.428164,5.70739435 L139.814,5.70739435 L139.814,8.30177477 L139.975744,8.30177477 C140.450192,6.87486554 142.197025,5.45876623 143.943857,5.45876623 C144.375174,5.45876623 144.80649,5.49119598 145.022149,5.54524558 Z M156.301091,5.54524558 L156.301091,8.88551037 C156.042301,8.84227069 155.600201,8.80984094 155.082621,8.80984094 C152.645682,8.80984094 151.12529,10.8312957 151.092942,12.7662711 L151.092942,22.311429 L147.707106,22.311429 L147.707106,5.70739435 L151.092942,5.70739435 L151.092942,8.30177477 L151.254685,8.30177477 C151.729134,6.87486554 153.475966,5.45876623 155.222799,5.45876623 C155.654116,5.45876623 156.085432,5.49119598 156.301091,5.54524558 Z M163.266866,23.3599911 L163.665834,22.1276604 L157.81071,5.70739435 L161.401421,5.70739435 L165.283271,17.2199575 L169.057292,5.70739435 L172.648003,5.70739435 L166.221385,24.7436607 C165.445015,26.9813138 163.558004,28.7973801 160.73288,28.7973801 C160.129037,28.7973801 159.244838,28.7000908 158.759606,28.548752 L158.759606,25.6733137 C158.975265,25.7165533 159.244838,25.7489831 159.794766,25.7489831 C161.412204,25.7489831 162.54441,25.2841566 163.266866,23.3599911 Z M193.221832,22.311429 L193.221832,20.3548338 L193.092437,20.3548338 C192.574857,21.3601562 191.011334,22.6681564 188.552829,22.6681564 C185.350303,22.6681564 182.978061,20.733181 182.978061,17.8793625 C182.978061,14.1283208 186.083541,12.4203537 191.669092,12.4203537 L193.135569,12.4203537 L193.135569,11.9014776 C193.135569,9.29628727 191.798487,8.23691526 189.911477,8.23691526 C188.196993,8.23691526 186.989306,9.13413849 186.320765,10.6150973 L183.150588,9.79354351 C184.315143,6.42084897 187.560801,5.49119598 189.976174,5.49119598 C193.459056,5.49119598 196.532188,7.1451135 196.532188,12.2257752 L196.532188,22.311429 L193.221832,22.311429 Z M193.135569,14.895825 L191.690658,14.895825 C188.488132,14.895825 186.309983,15.5984697 186.309983,17.7928831 C186.309983,19.4576106 187.754893,19.9224371 188.8871,19.9224371 C191.334822,19.9224371 193.135569,18.3874287 193.135569,16.625412 L193.135569,14.895825 Z M200.414054,0.172716122 L203.79989,0.172716122 L203.79989,7.3180722 L203.950851,7.3180722 C204.824267,6.24789027 206.139783,5.49119598 208.091491,5.49119598 C212.41544,5.49119598 215.359177,8.92875004 215.359177,14.0202216 C215.359177,19.1657428 212.41544,22.6465365 208.069925,22.6465365 C206.064302,22.6465365 204.727221,21.8682224 203.843021,20.7656107 L203.702844,20.7656107 L203.638146,22.311429 L200.414054,22.311429 L200.414054,0.172716122 Z M203.843021,16.6362219 C204.252772,18.3658088 205.87021,19.7602883 207.865049,19.7602883 C210.442167,19.7602883 212.059604,17.4469658 212.059604,14.0202216 C212.059604,10.6259072 210.442167,8.35582436 207.854267,8.35582436 C205.697683,8.35582436 204.295904,9.99893196 203.853804,11.5339404 C203.605797,12.4527834 203.562666,13.4905356 203.551883,13.9986018 C203.562666,14.5174779 203.627363,15.7281887 203.843021,16.6362219 Z M225.311826,22.6249167 C220.880047,22.6249167 217.860831,19.3819412 217.860831,14.0094117 C217.860831,8.84227069 220.944745,5.49119598 225.301043,5.49119598 C229.711256,5.49119598 232.849085,8.61526241 232.849085,14.0094117 C232.849085,19.5224701 229.786737,22.6249167 225.311826,22.6249167 Z M225.301043,19.7602883 C227.910509,19.7602883 229.560296,17.7496435 229.560296,14.0094117 C229.560296,10.3016097 227.888943,8.35582436 225.301043,8.35582436 C222.788624,8.35582436 221.181969,10.528618 221.181969,14.0094117 C221.181969,17.4793955 222.659229,19.7602883 225.301043,19.7602883 Z M246.252268,15.3174118 L246.252268,5.70739435 L249.638104,5.70739435 L249.638104,22.311429 L246.392446,22.311429 L246.392446,20.1710652 L246.219919,20.1710652 C245.346503,21.4142058 243.750631,22.5276274 241.464653,22.5276274 C238.909101,22.5276274 236.040845,20.7115611 236.040845,16.1930152 L236.040845,5.70739435 L239.426681,5.70739435 L239.426681,16.1389656 C239.426681,18.3333791 240.774546,19.5440899 242.618425,19.5440899 C244.494652,19.5440899 246.252268,18.1604204 246.252268,15.3174118 Z M261.294453,5.70739435 L261.294453,8.46392355 L258.091927,8.46392355 L258.091927,17.3929162 C258.091927,19.403561 259.493706,19.5224701 260.313208,19.5224701 C260.776873,19.5224701 261.02488,19.4900403 261.402283,19.4684205 L261.402283,22.311429 C260.647478,22.4735778 260.313208,22.5060076 259.364311,22.5060076 C257.186162,22.5060076 254.706091,20.9601892 254.706091,18.0523212 L254.706091,8.46392355 L252.258369,8.46392355 L252.258369,5.70739435 L254.706091,5.70739435 L254.706091,2.16174111 L258.091927,2.16174111 L258.091927,5.70739435 L261.294453,5.70739435 Z M7.23790933,62.6125492 L7.63687726,61.3802185 L1.78175338,44.9599524 L5.37246471,44.9599524 L9.25431479,56.4725155 L13.0283357,44.9599524 L16.619047,44.9599524 L10.1924286,63.9962187 C9.41605855,66.2338718 7.52904809,68.0499381 4.70392386,68.0499381 C4.10008052,68.0499381 3.21588133,67.9526489 2.73065007,67.80131 L2.73065007,64.9258717 C2.94630841,64.9691114 3.21588133,65.0015411 3.76581009,65.0015411 C5.38324763,65.0015411 6.5154539,64.5367146 7.23790933,62.6125492 Z M26.0541149,61.8774747 C21.6223361,61.8774747 18.6031193,58.6344992 18.6031193,53.2619697 C18.6031193,48.0948287 21.6870336,44.743754 26.043332,44.743754 C30.453545,44.743754 33.5913738,47.8678204 33.5913738,53.2619697 C33.5913738,58.7750281 30.5290254,61.8774747 26.0541149,61.8774747 Z M26.043332,59.0128463 C28.6527979,59.0128463 30.3025842,57.0022015 30.3025842,53.2619697 C30.3025842,49.5541677 28.631232,47.6083824 26.043332,47.6083824 C23.5309123,47.6083824 21.9242577,49.781176 21.9242577,53.2619697 C21.9242577,56.7319536 23.4015173,59.0128463 26.043332,59.0128463 Z M46.9945562,54.5699699 L46.9945562,44.9599524 L50.3803921,44.9599524 L50.3803921,61.5639871 L47.1347341,61.5639871 L47.1347341,59.4236232 L46.9622075,59.4236232 C46.0887912,60.6667639 44.4929195,61.7801855 42.2069411,61.7801855 C39.6513898,61.7801855 36.7831339,59.9641192 36.7831339,55.4455733 L36.7831339,44.9599524 L40.1689698,44.9599524 L40.1689698,55.3915237 C40.1689698,57.5859371 41.5168344,58.796648 43.3607132,58.796648 C45.2369407,58.796648 46.9945562,57.4129784 46.9945562,54.5699699 Z M62.8562436,44.7978036 L62.8562436,48.1380684 C62.5974536,48.0948287 62.155354,48.062399 61.637774,48.062399 C59.2008348,48.062399 57.6804435,50.0838537 57.6480948,52.0188291 L57.6480948,61.5639871 L54.2622589,61.5639871 L54.2622589,44.9599524 L57.6480948,44.9599524 L57.6480948,47.5543328 L57.8098385,47.5543328 C58.2842869,46.1274236 60.0311194,44.7113243 61.7779519,44.7113243 C62.2092686,44.7113243 62.6405853,44.743754 62.8562436,44.7978036 Z M73.8224888,39.4252742 L77.2083247,39.4252742 L77.2083247,46.5706302 L77.3592855,46.5706302 C78.2327018,45.5004483 79.5482176,44.743754 81.4999256,44.743754 C85.8238753,44.743754 88.7676116,48.1813081 88.7676116,53.2727797 C88.7676116,58.4183008 85.8238753,61.8990946 81.4783598,61.8990946 C79.4727372,61.8990946 78.1356555,61.1207804 77.2514563,60.0181688 L77.1112784,60.0181688 L77.0465809,61.5639871 L73.8224888,61.5639871 L73.8224888,39.4252742 Z M77.2514563,55.8887799 C77.6612072,57.6183669 79.2786447,59.0128463 81.2734843,59.0128463 C83.8506015,59.0128463 85.468039,56.6995238 85.468039,53.2727797 C85.468039,49.8784653 83.8506015,47.6083824 81.2627014,47.6083824 C79.1061181,47.6083824 77.7043389,49.25149 77.2622393,50.7864984 C77.0142322,51.7053415 76.9711005,52.7430937 76.9603176,53.2511598 C76.9711005,53.7700359 77.035798,54.9807468 77.2514563,55.8887799 Z M98.7202612,61.8774747 C94.2884823,61.8774747 91.2692656,58.6344992 91.2692656,53.2619697 C91.2692656,48.0948287 94.3531798,44.743754 98.7094783,44.743754 C103.119691,44.743754 106.25752,47.8678204 106.25752,53.2619697 C106.25752,58.7750281 103.195172,61.8774747 98.7202612,61.8774747 Z M98.7094783,59.0128463 C101.318944,59.0128463 102.96873,57.0022015 102.96873,53.2619697 C102.96873,49.5541677 101.297378,47.6083824 98.7094783,47.6083824 C96.1970586,47.6083824 94.590404,49.781176 94.590404,53.2619697 C94.590404,56.7319536 96.0676636,59.0128463 98.7094783,59.0128463 Z M116.210169,61.8774747 C111.77839,61.8774747 108.759174,58.6344992 108.759174,53.2619697 C108.759174,48.0948287 111.843088,44.743754 116.199386,44.743754 C120.609599,44.743754 123.747428,47.8678204 123.747428,53.2619697 C123.747428,58.7750281 120.68508,61.8774747 116.210169,61.8774747 Z M116.199386,59.0128463 C118.808852,59.0128463 120.458638,57.0022015 120.458638,53.2619697 C120.458638,49.5541677 118.787286,47.6083824 116.199386,47.6083824 C113.686967,47.6083824 112.080312,49.781176 112.080312,53.2619697 C112.080312,56.7319536 113.557572,59.0128463 116.199386,59.0128463 Z M137.247657,61.5639871 L132.125771,54.4834905 L130.325024,56.5049453 L130.325024,61.5639871 L126.939188,61.5639871 L126.939188,39.4252742 L130.325024,39.4252742 L130.325024,51.7485812 L130.540682,51.7485812 L136.460504,44.9599524 L140.568795,44.9599524 L134.271572,52.0512589 L141.107941,61.5639871 L137.247657,61.5639871 Z M153.519094,61.5639871 L148.397208,54.4834905 L146.596461,56.5049453 L146.596461,61.5639871 L143.210625,61.5639871 L143.210625,39.4252742 L146.596461,39.4252742 L146.596461,51.7485812 L146.812119,51.7485812 L152.731941,44.9599524 L156.840232,44.9599524 L150.543009,52.0512589 L157.379378,61.5639871 L153.519094,61.5639871 Z M166.588005,61.8990946 C161.703343,61.8990946 158.791956,58.2993917 158.791956,53.3484491 C158.791956,48.3542668 161.606297,44.743754 166.232168,44.743754 C170.523769,44.743754 173.424374,47.4246138 173.424374,53.1106309 L173.424374,54.5375401 L162.156226,54.5375401 C162.522845,57.3048792 164.183414,59.0128463 166.685051,59.0128463 C168.507364,59.0128463 169.693485,58.2129124 170.469855,56.7968131 L172.960708,58.4183008 C172.001029,60.3640861 169.833663,61.8990946 166.588005,61.8990946 Z M166.242951,47.6083824 C164.000104,47.6083824 162.544411,49.3703991 162.177792,51.9863994 L170.211065,51.9863994 C170.211065,49.3487793 168.776937,47.6083824 166.242951,47.6083824 Z M183.711293,61.8990946 C178.826632,61.8990946 175.915244,58.2993917 175.915244,53.3484491 C175.915244,48.3542668 178.729585,44.743754 183.355457,44.743754 C187.647058,44.743754 190.547662,47.4246138 190.547662,53.1106309 L190.547662,54.5375401 L179.279514,54.5375401 C179.646133,57.3048792 181.306702,59.0128463 183.808339,59.0128463 C185.630652,59.0128463 186.816773,58.2129124 187.593143,56.7968131 L190.083997,58.4183008 C189.124317,60.3640861 186.956951,61.8990946 183.711293,61.8990946 Z M183.36624,47.6083824 C181.123393,47.6083824 179.667699,49.3703991 179.30108,51.9863994 L187.334353,51.9863994 C187.334353,49.3487793 185.900225,47.6083824 183.36624,47.6083824 Z M193.728639,67.7905001 L193.728639,44.9599524 L196.952731,44.9599524 L197.038995,46.5706302 L197.265436,46.5706302 C198.138852,45.5004483 199.454368,44.743754 201.406076,44.743754 C205.730026,44.743754 208.673762,48.1813081 208.673762,53.2727797 C208.673762,58.4183008 205.730026,61.8990946 201.38451,61.8990946 C199.378888,61.8990946 198.041806,61.1207804 197.157607,60.0181688 L197.114475,60.0181688 L197.114475,67.7905001 L193.728639,67.7905001 Z M197.157607,55.8887799 C197.567357,57.6183669 199.184795,59.0128463 201.179635,59.0128463 C203.756752,59.0128463 205.374189,56.6995238 205.374189,53.2727797 C205.374189,49.8784653 203.756752,47.6083824 201.168852,47.6083824 C199.012268,47.6083824 197.610489,49.25149 197.16839,50.7864984 C196.920382,51.7053415 196.877251,52.7430937 196.866468,53.2511598 C196.877251,53.7700359 196.941948,54.9807468 197.157607,55.8887799 Z M213.612355,43.1006464 C212.37232,43.1006464 211.498903,42.1926133 211.498903,41.1116214 C211.498903,40.0738693 212.37232,39.1225964 213.612355,39.1225964 C214.852391,39.1225964 215.715024,40.0738693 215.715024,41.1116214 C215.715024,42.1926133 214.852391,43.1006464 213.612355,43.1006464 Z M215.316056,44.9599524 L215.316056,61.5639871 L211.93022,61.5639871 L211.93022,44.9599524 L215.316056,44.9599524 Z M222.648447,52.0944985 L222.648447,61.5639871 L219.262611,61.5639871 L219.262611,44.9599524 L222.519052,44.9599524 L222.519052,47.402994 L222.691578,47.402994 C223.521863,45.8896054 225.150083,44.743754 227.436062,44.743754 C230.444495,44.743754 232.859869,46.6354897 232.859869,51.0783662 L232.859869,61.5639871 L229.474033,61.5639871 L229.474033,51.2513249 C229.474033,49.0569115 228.126168,47.7272915 226.293072,47.7272915 C224.406062,47.7272915 222.648447,49.25149 222.648447,52.0944985 Z M247.77266,45.0464317 L250.996752,45.0464317 L250.996752,61.5315573 C250.996752,65.552847 247.761877,67.8337398 243.481059,67.8337398 C240.203052,67.8337398 238.0896,66.4392603 237.097572,65.1744998 L239.060063,63.0665657 C239.814867,63.7908303 241.022554,65.0015411 243.427144,65.0015411 C245.982695,65.0015411 247.632482,63.83407 247.654047,61.0775408 L247.654047,59.7695406 L247.481521,59.7695406 C246.597322,60.7964829 245.292589,61.5207474 243.394795,61.5207474 C239.060063,61.5207474 236.051629,58.2021025 236.051629,53.089011 C236.051629,48.1488783 239.027714,44.743754 243.384012,44.743754 C245.400418,44.743754 246.726717,45.5112582 247.578567,46.5922501 L247.718745,46.5922501 L247.77266,45.0464317 Z M239.351201,53.089011 C239.351201,56.5589949 241.033337,58.656119 243.610454,58.656119 C245.605293,58.656119 247.222731,57.3048792 247.632482,55.607722 C247.869706,54.7321186 247.912837,53.5646475 247.92362,53.0349615 C247.912837,52.5485151 247.880489,51.6188621 247.621699,50.6892092 C247.168816,49.1758206 245.810169,47.5759527 243.621237,47.5759527 C240.968639,47.5759527 239.351201,49.7919859 239.351201,53.089011 Z M272.778269,61.5639871 L272.778269,59.6073919 L272.648874,59.6073919 C272.131294,60.6127143 270.567771,61.9207144 268.109266,61.9207144 C264.90674,61.9207144 262.534498,59.985739 262.534498,57.1319205 C262.534498,53.3808788 265.639978,51.6729117 271.225529,51.6729117 L272.692006,51.6729117 L272.692006,51.1540356 C272.692006,48.5488453 271.354924,47.4894733 269.467914,47.4894733 C267.75343,47.4894733 266.545743,48.3866965 265.877202,49.8676554 L262.707025,49.0461016 C263.87158,45.673407 267.117238,44.743754 269.532611,44.743754 C273.015493,44.743754 276.088625,46.3976715 276.088625,51.4783332 L276.088625,61.5639871 L272.778269,61.5639871 Z M272.692006,54.148383 L271.247095,54.148383 C268.044569,54.148383 265.866419,54.8510277 265.866419,57.0454412 C265.866419,58.7101686 267.31133,59.1749951 268.443536,59.1749951 C270.891259,59.1749951 272.692006,57.6399867 272.692006,55.87797 L272.692006,54.148383 Z M291.001415,45.0464317 L294.225507,45.0464317 L294.225507,61.5315573 C294.225507,65.552847 290.990632,67.8337398 286.709814,67.8337398 C283.431807,67.8337398 281.318355,66.4392603 280.326327,65.1744998 L282.288818,63.0665657 C283.043622,63.7908303 284.251309,65.0015411 286.655899,65.0015411 C289.21145,65.0015411 290.861237,63.83407 290.882803,61.0775408 L290.882803,59.7695406 L290.710276,59.7695406 C289.826077,60.7964829 288.521344,61.5207474 286.62355,61.5207474 C282.288818,61.5207474 279.280384,58.2021025 279.280384,53.089011 C279.280384,48.1488783 282.256469,44.743754 286.612767,44.743754 C288.629173,44.743754 289.955472,45.5112582 290.807322,46.5922501 L290.9475,46.5922501 L291.001415,45.0464317 Z M282.579957,53.089011 C282.579957,56.5589949 284.262092,58.656119 286.839209,58.656119 C288.834048,58.656119 290.451486,57.3048792 290.861237,55.607722 C291.098461,54.7321186 291.141593,53.5646475 291.152375,53.0349615 C291.141593,52.5485151 291.109244,51.6188621 290.850454,50.6892092 C290.397571,49.1758206 289.038924,47.5759527 286.849992,47.5759527 C284.197394,47.5759527 282.579957,49.7919859 282.579957,53.089011 Z M307.725736,61.5639871 L307.725736,59.6073919 L307.596341,59.6073919 C307.078761,60.6127143 305.515238,61.9207144 303.056733,61.9207144 C299.854207,61.9207144 297.481965,59.985739 297.481965,57.1319205 C297.481965,53.3808788 300.587445,51.6729117 306.172996,51.6729117 L307.639473,51.6729117 L307.639473,51.1540356 C307.639473,48.5488453 306.302391,47.4894733 304.415381,47.4894733 C302.700897,47.4894733 301.49321,48.3866965 300.824669,49.8676554 L297.654492,49.0461016 C298.819047,45.673407 302.064705,44.743754 304.480078,44.743754 C307.96296,44.743754 311.036092,46.3976715 311.036092,51.4783332 L311.036092,61.5639871 L307.725736,61.5639871 Z M307.639473,54.148383 L306.194562,54.148383 C302.992036,54.148383 300.813886,54.8510277 300.813886,57.0454412 C300.813886,58.7101686 302.258797,59.1749951 303.391003,59.1749951 C305.838726,59.1749951 307.639473,57.6399867 307.639473,55.87797 L307.639473,54.148383 Z M316.66479,43.1006464 C315.424755,43.1006464 314.551338,42.1926133 314.551338,41.1116214 C314.551338,40.0738693 315.424755,39.1225964 316.66479,39.1225964 C317.904826,39.1225964 318.767459,40.0738693 318.767459,41.1116214 C318.767459,42.1926133 317.904826,43.1006464 316.66479,43.1006464 Z M318.368491,44.9599524 L318.368491,61.5639871 L314.982655,61.5639871 L314.982655,44.9599524 L318.368491,44.9599524 Z M325.700882,52.0944985 L325.700882,61.5639871 L322.315046,61.5639871 L322.315046,44.9599524 L325.571487,44.9599524 L325.571487,47.402994 L325.744013,47.402994 C326.574298,45.8896054 328.202518,44.743754 330.488497,44.743754 C333.496931,44.743754 335.912304,46.6354897 335.912304,51.0783662 L335.912304,61.5639871 L332.526468,61.5639871 L332.526468,51.2513249 C332.526468,49.0569115 331.178603,47.7272915 329.345508,47.7272915 C327.458497,47.7272915 325.700882,49.25149 325.700882,52.0944985 Z M341.961537,61.8666648 C340.75385,61.8666648 339.772605,60.8829622 339.772605,59.6506315 C339.772605,58.4291107 340.775416,57.4778379 341.961537,57.4778379 C343.180007,57.4778379 344.161252,58.4615405 344.161252,59.6506315 C344.161252,60.8829622 343.180007,61.8666648 341.961537,61.8666648 Z"/>
      </g>
      <g transform="translate(0 304.439)">
        <rect width="612.8" height="356" fill="#FFF" transform="translate(0 112)"/>
        <g transform="translate(78.4 260)">
          <use fill="#48A3DF" xlink:href="#infin-c"/>
          <rect width="72.8" height="24.8" x=".8" y=".8" stroke="#FFF" stroke-width="1.6" rx="12.4"/>
          <text fill="#FFF" font-family="InterUI-Bold, Inter UI" font-size="11.2" font-weight="bold" letter-spacing=".16">
            <tspan x="12.8" y="17.4">Q1 Bonus</tspan>
          </text>
        </g>
        <g transform="translate(663.2 220.8)">
          <use fill="#48A3DF" xlink:href="#infin-d"/>
          <rect width="79.2" height="24.8" x=".8" y=".8" stroke="#FFF" stroke-width="1.6" rx="12.4"/>
          <text fill="#FFF" font-family="InterUI-Bold, Inter UI" font-size="11.2" font-weight="bold" letter-spacing=".16">
            <tspan x="12.8" y="17.4">2016 Sales</tspan>
          </text>
        </g>
        <g transform="translate(0 173.6)">
          <use fill="#7D74D0" xlink:href="#infin-e"/>
          <rect width="110.4" height="24.8" x=".8" y=".8" stroke="#FFF" stroke-width="1.6" rx="12.4"/>
          <text fill="#FFF" font-family="InterUI-Bold, Inter UI" font-size="11.2" font-weight="bold" letter-spacing=".16">
            <tspan x="12.8" y="17.4">Company Dinner</tspan>
          </text>
        </g>
        <g transform="translate(730.4 280.8)">
          <use fill="#7D74D0" xlink:href="#infin-f"/>
          <rect width="64.8" height="24.8" x=".8" y=".8" stroke="#FFF" stroke-width="1.6" rx="12.4"/>
          <text fill="#FFF" font-family="InterUI-Bold, Inter UI" font-size="11.2" font-weight="bold" letter-spacing=".16">
            <tspan x="13.6" y="17.4">Recipes</tspan>
          </text>
        </g>
        <g transform="translate(762.4 154.4)">
          <use fill="#7D74D0" xlink:href="#infin-g"/>
          <rect width="109.6" height="24.8" x=".8" y=".8" stroke="#FFF" stroke-width="1.6" rx="12.4"/>
          <text fill="#FFF" font-family="InterUI-Bold, Inter UI" font-size="11.2" font-weight="bold" letter-spacing=".16">
            <tspan x="13.6" y="17.4">Halloween Party</tspan>
          </text>
        </g>
        <g transform="translate(196)">
          <mask id="infin-j" fill="#fff">
            <use xlink:href="#infin-h"/>
          </mask>
          <use fill="#000" filter="url(#infin-i)" xlink:href="#infin-h"/>
          <use fill="#FFF" xlink:href="#infin-h"/>
          <path stroke="#C4CDC9" stroke-width=".508" d="M3.2,0.307316132 L476.8,0.307316132 C478.707614,0.307316132 480.254042,1.85374322 480.254042,3.7613577 L480.254042,326.361358 C480.254042,328.268972 478.707614,329.815399 476.8,329.815399 L3.2,329.815399 C1.29238552,329.815399 -0.25404157,328.268972 -0.25404157,326.361358 L-0.25404157,3.7613577 C-0.25404157,1.85374322 1.29238552,0.307316132 3.2,0.307316132 Z"/>
          <g mask="url(#infin-j)">
            <g transform="translate(23 27.048)">
              <g transform="translate(1 236.09)">
                <rect width="209.327" height="104.987" fill="#F1F4F7" rx="1.944"/>
                <text fill="#B9C3CD" font-family="Flow-Circular, Flow" font-size="9.073">
                  <tspan x="18.146" y="53.717">Very Good</tspan>
                </text>
                <text fill="#B9C3CD" font-family="Flow-Circular, Flow" font-size="9.073">
                  <tspan x="18.146" y="69.919">Lorem ipsum bla it’s all good don’t </tspan> <tspan x="18.146" y="83.528">worry nicjsinwc</tspan>
                </text>
                <text fill="#B9C3CD" font-family="Flow-Circular, Flow" font-size="9.073">
                  <tspan x="18.146" y="26.498">FINANCIAL HEALTH</tspan>
                </text>
              </g>
              <g transform="translate(223.288 235.441)">
                <rect width="209.327" height="104.987" fill="#F1F4F7" rx="1.944"/>
                <text fill="#B9C3CD" font-family="Flow-Circular, Flow" font-size="9.073">
                  <tspan x="18.146" y="53.717">Very Good</tspan>
                </text>
                <text fill="#B9C3CD" font-family="Flow-Circular, Flow" font-size="9.073">
                  <tspan x="18.146" y="69.919">Lorem ipsum bla it’s all good don’t </tspan> <tspan x="18.146" y="83.528">worry nicjsinwc</tspan>
                </text>
                <text fill="#B9C3CD" font-family="Flow-Circular, Flow" font-size="9.073">
                  <tspan x="18.146" y="26.498">FINANCIAL HEALTH</tspan>
                </text>
              </g>
              <g transform="translate(0 46.205)">
                <path fill="#48A3DF" d="M2.4361269,0.321893398 L133.697822,0.321893398 C134.77158,0.321893398 135.642032,1.19234588 135.642032,2.26610344 L135.642032,174.17445 C135.642032,175.248208 134.77158,176.11866 133.697822,176.11866 L2.4361269,176.11866 C1.36236935,176.11866 0.491916859,175.248208 0.491916859,174.17445 L0.491916859,2.26610344 C0.491916859,1.19234588 1.36236935,0.321893398 2.4361269,0.321893398 Z"/>
                <g transform="translate(12.07 143.223)">
                  <polyline stroke="#FFF" stroke-linecap="round" stroke-linejoin="round" stroke-width="1.08" points="85.307 12.313 88.563 15.554 85.307 18.794"/>
                  <text fill="#FFF" font-family="InterUI-Medium, Inter UI" font-size="9.073" font-weight="400">
                    <tspan x="26.048" y="17.425">View Details</tspan>
                  </text>
                  <rect width="112.658" height="1" fill="#FFF" opacity=".5"/>
                </g>
                <text fill="#FFF" font-family="InterUI-Regular, Inter UI" font-size="18.146">
                  <tspan x="19.162" y="83.103">$480,240</tspan>
                </text>
                <text fill="#FFF" font-family="InterUI-Medium, Inter UI" font-size="9.073" font-weight="400">
                  <tspan x="19.162" y="99.73">+32% since last year</tspan>
                </text>
                <text fill="#FFF" font-family="InterUI-Bold, Inter UI" font-size="10.369" font-weight="bold" letter-spacing=".285">
                  <tspan x="19.162" y="28.146">REVENUE</tspan>
                </text>
              </g>
              <g transform="translate(149.424 46.205)">
                <path fill="#7D74D0" d="M2.40453695,0.321893398 L133.666232,0.321893398 C134.73999,0.321893398 135.610442,1.19234588 135.610442,2.26610344 L135.610442,174.17445 C135.610442,175.248208 134.73999,176.11866 133.666232,176.11866 L2.40453695,176.11866 C1.3307794,176.11866 0.460326909,175.248208 0.460326909,174.17445 L0.460326909,2.26610344 C0.460326909,1.19234588 1.3307794,0.321893398 2.40453695,0.321893398 Z"/>
                <g transform="translate(11.07 143.223)">
                  <polyline stroke="#FFF" stroke-linecap="round" stroke-linejoin="round" stroke-width="1.08" points="85.307 12.313 88.563 15.554 85.307 18.794"/>
                  <text fill="#FFF" font-family="InterUI-Medium, Inter UI" font-size="9.073" font-weight="400">
                    <tspan x="26.048" y="17.425">View Details</tspan>
                  </text>
                  <rect width="112.658" height="1" fill="#FFF" opacity=".5"/>
                </g>
                <text fill="#FFF" font-family="InterUI-Regular, Inter UI" font-size="18.146">
                  <tspan x="18.146" y="83.103">$380,890</tspan>
                </text>
                <text fill="#FFF" font-family="InterUI-Medium, Inter UI" font-size="9.073" font-weight="400">
                  <tspan x="18.146" y="100.378">+22% since last year</tspan>
                </text>
                <text fill="#FFF" font-family="InterUI-Bold, Inter UI" font-size="10.369" font-weight="bold" letter-spacing=".285">
                  <tspan x="18.146" y="28.146">EXPENSES</tspan>
                </text>
              </g>
              <g transform="translate(297.832 46.205)">
                <path fill="#50BB4B" d="M2.35678072,0.321893398 L133.618476,0.321893398 C134.692234,0.321893398 135.562686,1.19234588 135.562686,2.26610344 L135.562686,174.17445 C135.562686,175.248208 134.692234,176.11866 133.618476,176.11866 L2.35678072,176.11866 C1.28302316,176.11866 0.412570678,175.248208 0.412570678,174.17445 L0.412570678,2.26610344 C0.412570678,1.19234588 1.28302316,0.321893398 2.35678072,0.321893398 Z"/>
                <g transform="translate(11.07 143.223)">
                  <polyline stroke="#FFF" stroke-linecap="round" stroke-linejoin="round" stroke-width="1.08" points="85.307 12.313 88.563 15.554 85.307 18.794"/>
                  <text fill="#FFF" font-family="InterUI-Medium, Inter UI" font-size="9.073" font-weight="400">
                    <tspan x="26.048" y="17.425">View Details</tspan>
                  </text>
                  <rect width="112.658" height="1" fill="#FFF" opacity=".5"/>
                </g>
                <text fill="#FFF" font-family="InterUI-Regular, Inter UI" font-size="18.146">
                  <tspan x="18.146" y="83.103">$230,450</tspan>
                </text>
                <text fill="#FFF" font-family="InterUI-Medium, Inter UI" font-size="9.073" font-weight="400">
                  <tspan x="18.146" y="100.378">+21% since last year</tspan>
                </text>
                <text fill="#FFF" font-family="InterUI-Bold, Inter UI" font-size="10.369" font-weight="bold" letter-spacing=".285">
                  <tspan x="18.146" y="28.146">CASH FLOW</tspan>
                </text>
              </g>
              <g transform="translate(1.016)">
                <g transform="translate(0 .192)">
                  <g fill="#000" transform="translate(190.533 5.24)">
                    <path d="M.64760912.201475234L1.9557151.201475234 3.76322116 5.18258817 3.84054762 5.18258817 5.65127561.201475234 6.96260353.201475234 6.96260353 6.8 5.94769371 6.8 5.94769371 2.07986388 5.8929208 2.07986388 4.21429218 6.76778064 3.38625465 6.76778064 1.71729185 2.07342 1.66574087 2.07342 1.66574087 6.8.64760912 6.8.64760912.201475234zM10.2103222 6.89343614C8.88610653 6.89343614 7.98396447 5.92685537 7.98396447 4.32555321 7.98396447 2.78546784 8.90543814 1.78666771 10.2071003 1.78666771 11.524872 1.78666771 12.4624554 2.71780719 12.4624554 4.32555321 12.4624554 5.96874053 11.5474256 6.89343614 10.2103222 6.89343614zM10.2071003 6.03962312C10.9868087 6.03962312 11.4797649 5.44034304 11.4797649 4.32555321 11.4797649 3.22042919 10.9803649 2.64048073 10.2071003 2.64048073 9.45638919 2.64048073 8.97632073 3.28808985 8.97632073 4.32555321 8.97632073 5.35979464 9.41772595 6.03962312 10.2071003 6.03962312zM14.4278413 3.97758413L14.4278413 6.8 13.4161534 6.8 13.4161534 1.85110643 14.3891781 1.85110643 14.3891781 2.57926394 14.440729 2.57926394C14.6888181 2.12819291 15.1753304 1.78666771 15.8583808 1.78666771 16.757301 1.78666771 17.4790146 2.35050649 17.4790146 3.67472216L17.4790146 6.8 16.4673267 6.8 16.4673267 3.72627313C16.4673267 3.07222014 16.0645847 2.67592202 15.5168556 2.67592202 14.9530169 2.67592202 14.4278413 3.13021499 14.4278413 3.97758413zM20.9619323 1.85110643L20.9619323 2.67270009 20.0050174 2.67270009 20.0050174 5.33401916C20.0050174 5.93329924 20.423869 5.96874053 20.6687362 5.96874053 20.8072794 5.96874053 20.8813839 5.95907472 20.9941517 5.95263085L20.9941517 6.8C20.7686162 6.84832904 20.6687362 6.85799485 20.3852058 6.85799485 19.7343747 6.85799485 18.9933295 6.39725801 18.9933295 5.53055725L18.9933295 2.67270009 18.26195 2.67270009 18.26195 1.85110643 18.9933295 1.85110643 18.9933295.794311443 20.0050174.794311443 20.0050174 1.85110643 20.9619323 1.85110643zM22.8822092 3.93569897L22.8822092 6.8 21.8705213 6.8 21.8705213.201475234 22.8660995.201475234 22.8660995 2.48904974 22.9176505 2.48904974C23.1754054 2.11530517 23.6425861 1.78666771 24.3191926 1.78666771 25.2342224 1.78666771 25.8850535 2.41816715 25.8850535 3.67472216L25.8850535 6.8 24.8733656 6.8 24.8733656 3.66827828C24.8733656 3.04644465 24.5447281 2.67592202 23.9744455 2.67592202 23.3880532 2.67592202 22.8822092 3.09477369 22.8822092 3.93569897zM52.6409541 3.50395955C52.6409541 4.69929778 52.2800973 5.62721532 51.6775953 6.20394185L52.3542018 7.12863746 51.6196004 7.70858593 50.8753332 6.71622967C50.5789151 6.83221936 50.2534996 6.89021421 49.9087525 6.89021421 48.3010064 6.89021421 47.1636631 5.62077145 47.1636631 3.50395955 47.1636631 1.39359152 48.2945626.111261028 49.9023086.111261028 51.5068327.111261028 52.6409541 1.39359152 52.6409541 3.50395955zM50.5176984 4.62841519L51.087981 5.40490175C51.4133965 4.98605008 51.6099346 4.3513287 51.6099346 3.5265131 51.6099346 1.96065225 50.9107745 1.04884438 49.8861989 1.04884438 48.8938427 1.04884438 48.1946826 1.89299159 48.1946826 3.5265131 48.1946826 5.10526171 48.9486156 5.98162828 49.9248621 5.98162828 50.0505176 5.98162828 50.1729512 5.9655186 50.2889409 5.93652117L49.7573215 5.23091721 50.5176984 4.62841519zM56.7940357 4.71540746L56.7940357 1.85110643 57.8057236 1.85110643 57.8057236 6.8 56.8359209 6.8 56.8359209 6.16205669 56.7843699 6.16205669C56.5233931 6.53257932 56.0465466 6.86443872 55.3634962 6.86443872 54.5998974 6.86443872 53.7428624 6.32315348 53.7428624 4.97638427L53.7428624 1.85110643 54.7545503 1.85110643 54.7545503 4.96027459C54.7545503 5.61432758 55.1572923 5.9751844 55.7082433 5.9751844 56.2688602 5.9751844 56.7940357 5.56277661 56.7940357 4.71540746zM61.8395924 6.8L61.8395924 6.2168296 61.8009291 6.2168296C61.6462762 6.51646964 61.1790955 6.90632389 60.4444941 6.90632389 59.4875791 6.90632389 58.7787532 6.32959736 58.7787532 5.47900627 58.7787532 4.36099451 59.7066708 3.85192863 61.3756336 3.85192863L61.8138169 3.85192863 61.8138169 3.69727571C61.8138169 2.92078915 61.4142968 2.60503943 60.850458 2.60503943 60.3381702 2.60503943 59.9773134 2.87246011 59.7775534 3.31386533L58.8303042 3.0689982C59.1782733 2.0637542 60.148076 1.78666771 60.8697897 1.78666771 61.910475 1.78666771 62.8287267 2.2796239 62.8287267 3.79393379L62.8287267 6.8 61.8395924 6.8zM61.8138169 4.58975196L61.3820775 4.58975196C60.4251625 4.58975196 59.7743314 4.79917779 59.7743314 5.45323079 59.7743314 5.94940892 60.2060709 6.08795216 60.5443741 6.08795216 61.2757536 6.08795216 61.8138169 5.63043726 61.8138169 5.10526171L61.8138169 4.58975196zM66.5565113 1.80277739L66.5565113 2.79835559C66.4791849 2.78546784 66.3470855 2.77580203 66.1924326 2.77580203 65.4642751 2.77580203 65.0099821 3.37830405 65.0003163 3.95503058L65.0003163 6.8 63.9886284 6.8 63.9886284 1.85110643 65.0003163 1.85110643 65.0003163 2.62437105 65.0486453 2.62437105C65.1904105 2.1990755 65.7123641 1.7770019 66.2343178 1.7770019 66.3631952 1.7770019 66.4920726 1.78666771 66.5565113 1.80277739zM69.6817924 1.85110643L69.6817924 2.67270009 68.7248774 2.67270009 68.7248774 5.33401916C68.7248774 5.93329924 69.1437291 5.96874053 69.3885962 5.96874053 69.5271395 5.96874053 69.601244 5.95907472 69.7140118 5.95263085L69.7140118 6.8C69.4884762 6.84832904 69.3885962 6.85799485 69.1050659 6.85799485 68.4542348 6.85799485 67.7131896 6.39725801 67.7131896 5.53055725L67.7131896 2.67270009 66.9818101 2.67270009 66.9818101 1.85110643 67.7131896 1.85110643 67.7131896.794311443 68.7248774.794311443 68.7248774 1.85110643 69.6817924 1.85110643zM72.7136372 6.89988001C71.2541002 6.89988001 70.3841775 5.82697535 70.3841775 4.3513287 70.3841775 2.8627943 71.2251028 1.78666771 72.6073133 1.78666771 73.8896438 1.78666771 74.7563446 2.58570782 74.7563446 4.28044611L74.7563446 4.70574165 71.3894215 4.70574165C71.4989673 5.53055725 71.9951455 6.03962312 72.7426346 6.03962312 73.2871418 6.03962312 73.6415547 5.80119986 73.8735341 5.37912626L74.6178013 5.86241665C74.331049 6.44236511 73.6834399 6.89988001 72.7136372 6.89988001zM72.6105352 2.64048073C71.9403726 2.64048073 71.5054112 3.16565628 71.3958654 3.94536477L73.7962077 3.94536477C73.7962077 3.15921241 73.3676902 2.64048073 72.6105352 2.64048073zM78.2747035 1.80277739L78.2747035 2.79835559C78.197377 2.78546784 78.0652776 2.77580203 77.9106247 2.77580203 77.1824672 2.77580203 76.7281742 3.37830405 76.7185084 3.95503058L76.7185084 6.8 75.7068205 6.8 75.7068205 1.85110643 76.7185084 1.85110643 76.7185084 2.62437105 76.7668375 2.62437105C76.9086026 2.1990755 77.4305563 1.7770019 77.9525099 1.7770019 78.0813873 1.7770019 78.2102647 1.78666771 78.2747035 1.80277739z" opacity=".34"/>
                    <path d="M100.507925,0.201475234 L102.051233,3.32030921 L103.59454,0.201475234 L104.712552,0.201475234 L102.573186,4.37066032 L102.573186,6.8 L101.529279,6.8 L101.529279,4.37066032 L99.3931355,0.201475234 L100.507925,0.201475234 Z M107.650963,6.89988001 C106.191426,6.89988001 105.321503,5.82697535 105.321503,4.3513287 C105.321503,2.8627943 106.162428,1.78666771 107.544639,1.78666771 C108.826969,1.78666771 109.69367,2.58570782 109.69367,4.28044611 L109.69367,4.70574165 L106.326747,4.70574165 C106.436293,5.53055725 106.932471,6.03962312 107.67996,6.03962312 C108.224467,6.03962312 108.57888,5.80119986 108.81086,5.37912626 L109.555127,5.86241665 C109.268375,6.44236511 108.620766,6.89988001 107.650963,6.89988001 Z M107.547861,2.64048073 C106.877698,2.64048073 106.442737,3.16565628 106.333191,3.94536477 L108.733533,3.94536477 C108.733533,3.15921241 108.305016,2.64048073 107.547861,2.64048073 Z M113.518113,6.8 L113.518113,6.2168296 L113.47945,6.2168296 C113.324797,6.51646964 112.857616,6.90632389 112.123015,6.90632389 C111.1661,6.90632389 110.457274,6.32959736 110.457274,5.47900627 C110.457274,4.36099451 111.385191,3.85192863 113.054154,3.85192863 L113.492338,3.85192863 L113.492338,3.69727571 C113.492338,2.92078915 113.092817,2.60503943 112.528979,2.60503943 C112.016691,2.60503943 111.655834,2.87246011 111.456074,3.31386533 L110.508825,3.0689982 C110.856794,2.0637542 111.826597,1.78666771 112.54831,1.78666771 C113.588996,1.78666771 114.507247,2.2796239 114.507247,3.79393379 L114.507247,6.8 L113.518113,6.8 Z M113.492338,4.58975196 L113.060598,4.58975196 C112.103683,4.58975196 111.452852,4.79917779 111.452852,5.45323079 C111.452852,5.94940892 111.884591,6.08795216 112.222895,6.08795216 C112.954274,6.08795216 113.492338,5.63043726 113.492338,5.10526171 L113.492338,4.58975196 Z M118.235032,1.80277739 L118.235032,2.79835559 C118.157706,2.78546784 118.025606,2.77580203 117.870953,2.77580203 C117.142796,2.77580203 116.688503,3.37830405 116.678837,3.95503058 L116.678837,6.8 L115.667149,6.8 L115.667149,1.85110643 L116.678837,1.85110643 L116.678837,2.62437105 L116.727166,2.62437105 C116.868931,2.1990755 117.390885,1.7770019 117.912838,1.7770019 C118.041716,1.7770019 118.170593,1.78666771 118.235032,1.80277739 Z"/>
                  </g>
                  <rect width="430.318" height="1" x=".324" y="25.319" stroke="#000" stroke-opacity=".16" stroke-width=".648"/>
                  <g transform="translate(327.275)">
                    <rect width="103.691" height="16.85" fill="#F1F4F7" rx="1.296"/>
                    <path fill="#000" d="M12.6677389,11.1478738 L12.6677389,12.0403501 L8.19891378,12.0403501 L8.19891378,11.2831951 L10.4542689,8.98595482 C11.1856484,8.23202182 11.4917323,7.78739466 11.4917323,7.2976604 C11.4917323,6.67582677 11.0793245,6.18931444 10.3962741,6.18931444 C9.63267527,6.18931444 9.34270103,6.83047969 9.34270103,7.52641785 L8.33101315,7.52641785 C8.33101315,6.40840608 9.01728551,5.3516111 10.4188276,5.3516111 C11.6979362,5.3516111 12.4937544,6.11198798 12.4937544,7.23322168 C12.4937544,8.05803728 11.8880304,8.82807996 11.1308755,9.62389813 L9.88398627,10.9126725 C9.78410626,11.0157745 9.72611141,11.0705474 9.59723397,11.1253203 L9.63267527,11.1994248 C9.7615527,11.1478738 9.85498885,11.1478738 10.0160856,11.1478738 L12.6677389,11.1478738 Z M18.0709306,8.16113922 L18.0709306,9.22437808 C18.0709306,11.1704274 17.1333472,12.1305643 15.8316851,12.1305643 C14.5235791,12.1305643 13.5666641,11.1704274 13.5666641,9.22437808 L13.5666641,8.16113922 C13.5666641,6.26019703 14.5203572,5.3516111 15.8220193,5.3516111 C17.1269033,5.3516111 18.0709306,6.26019703 18.0709306,8.16113922 Z M17.043133,9.38225294 L17.043133,8.00004243 C17.043133,6.8401455 16.5179574,6.23764348 15.8220193,6.23764348 C15.1260811,6.23764348 14.5944617,6.8401455 14.5944617,8.00004243 L14.5944617,9.38225294 C14.5944617,10.5711473 15.1357469,11.24131 15.8316851,11.24131 C16.5211794,11.24131 17.043133,10.5711473 17.043133,9.38225294 Z M21.6376187,5.41927176 L21.6376187,12.0403501 L20.619487,12.0403501 L20.619487,6.70482419 L18.908639,7.37176492 L18.908639,6.45351319 L21.5087413,5.41927176 L21.6376187,5.41927176 Z M27.5949825,5.44182531 L27.5949825,6.2569751 L25.0593189,12.0403501 L23.9638607,12.0403501 L26.5285217,6.36007705 L23.3259174,6.36007705 L23.3259174,5.44182531 L27.5949825,5.44182531 Z"/>
                    <polyline stroke="#000" stroke-linecap="round" stroke-linejoin="round" stroke-width="1.296" points="90.406 4.212 94.942 8.749 90.406 13.285" transform="matrix(0 1 1 0 83.925 -83.925)"/>
                  </g>
                </g>
                <path fill="#171717" d="M4.42970161,12.1515012 L1.04943056,12.1515012 L1.04943056,0.839744413 L4.52912135,0.839744413 C7.51723678,0.839744413 9.75970418,3.04354858 9.75970418,6.4403896 C9.75970418,10.05264 7.52828342,12.1515012 4.42970161,12.1515012 Z M4.4241783,2.40284361 L2.83898582,2.40284361 L2.83898582,10.588402 L4.33028188,10.588402 C6.51751609,10.588402 7.94253232,9.15233909 7.94253232,6.4403896 C7.94253232,3.98803608 6.50646945,2.40284361 4.4241783,2.40284361 Z M16.2938001,12.1515012 L16.2938001,11.1517805 L16.2275203,11.1517805 C15.962401,11.6654491 15.1615198,12.3337707 13.9022031,12.3337707 C12.2617775,12.3337707 11.0466473,11.3450966 11.0466473,9.88694048 C11.0466473,7.97034888 12.6373631,7.09766452 15.4984422,7.09766452 L16.2496136,7.09766452 L16.2496136,6.83254523 C16.2496136,5.50142541 15.564722,4.96014018 14.5981413,4.96014018 C13.7199336,4.96014018 13.1013219,5.41857563 12.7588761,6.1752703 L11.1350204,5.75549808 C11.7315389,4.03222263 13.3940578,3.55721722 14.6312812,3.55721722 C16.4153131,3.55721722 17.989459,4.40228499 17.989459,6.99824479 L17.989459,12.1515012 L16.2938001,12.1515012 Z M16.2496136,8.36250451 L15.5094889,8.36250451 C13.8690632,8.36250451 12.7533528,8.72152023 12.7533528,9.84275393 C12.7533528,10.693345 13.4934775,10.9308477 14.073426,10.9308477 C15.3272193,10.9308477 16.2496136,10.1465365 16.2496136,9.24623551 L16.2496136,8.36250451 Z M19.8287323,6.02614069 C19.8287323,4.66188097 21.0825257,3.55721722 22.9273141,3.55721722 C24.3357604,3.55721722 25.473564,4.1095491 26.009326,5.04298996 L24.7831492,5.93224427 C24.5069833,5.52351869 23.9215115,5.00985005 22.977024,5.00985005 C22.1485262,5.00985005 21.5520078,5.44066891 21.5520078,6.00404742 C21.5520078,6.53428601 21.9938733,6.83806854 22.8610343,7.07004793 L23.8331384,7.32412059 C25.3851909,7.76598609 26.1474089,8.62210049 26.1474089,9.76542747 C26.1474089,11.212537 24.8936156,12.322724 22.855511,12.322724 C21.5133445,12.322724 20.2926911,11.8311487 19.685126,10.7982881 L20.9831059,9.85380057 C21.2647952,10.2790961 21.8557903,10.831428 22.838941,10.831428 C23.7337187,10.831428 24.4186102,10.4227024 24.4186102,9.82618397 C24.4186102,9.30146869 23.9380814,8.94245298 23.0598738,8.682857 L21.97178,8.39012111 C20.4804839,7.95930225 19.8287323,7.10871116 19.8287323,6.02614069 Z M29.6381539,7.24127081 L29.6381539,12.1515012 L27.9038318,12.1515012 L27.9038318,0.839744413 L29.6105373,0.839744413 L29.6105373,4.76130071 L29.6989104,4.76130071 C30.1407759,4.12059573 30.9416571,3.55721722 32.1015541,3.55721722 C33.6701766,3.55721722 34.785887,4.63978769 34.785887,6.79388199 L34.785887,12.1515012 L33.0515649,12.1515012 L33.0515649,6.78283536 C33.0515649,5.71683484 32.4881864,5.08165319 31.510559,5.08165319 C30.505315,5.08165319 29.6381539,5.79968462 29.6381539,7.24127081 Z M36.7742902,0.839744413 L38.5086122,0.839744413 L38.5086122,4.49065809 L38.5859387,4.49065809 C39.0333275,3.94384953 39.7071724,3.55721722 40.7068931,3.55721722 C42.9217439,3.55721722 44.4296099,5.31363258 44.4296099,7.9151157 C44.4296099,10.5442154 42.9217439,12.322724 40.6958465,12.322724 C39.6685092,12.322724 38.9836177,11.9250451 38.5307055,11.3616666 L38.4589024,11.3616666 L38.4257625,12.1515012 L36.7742902,12.1515012 L36.7742902,0.839744413 Z M38.5307055,9.25175883 C38.7405916,10.1354898 39.5690894,10.8479979 40.5909034,10.8479979 C41.9109766,10.8479979 42.7394744,9.66600773 42.7394744,7.9151157 C42.7394744,6.18079362 41.9109766,5.02089669 40.5853801,5.02089669 C39.4807163,5.02089669 38.7626849,5.86044113 38.5362288,6.64475239 C38.4091925,7.11423448 38.3870992,7.64447308 38.3815759,7.90406906 C38.3870992,8.16918836 38.4202391,8.78780005 38.5307055,9.25175883 Z M49.527642,12.3116774 C47.257558,12.3116774 45.7110287,10.6546818 45.7110287,7.90959238 C45.7110287,5.26944603 47.2906979,3.55721722 49.5221186,3.55721722 C51.781156,3.55721722 53.3884417,5.15345633 53.3884417,7.90959238 C53.3884417,10.7264849 51.8198192,12.3116774 49.527642,12.3116774 Z M49.5221186,10.8479979 C50.8587618,10.8479979 51.7038295,9.82066065 51.7038295,7.90959238 C51.7038295,6.01509406 50.8477151,5.02089669 49.5221186,5.02089669 C48.2351854,5.02089669 47.4122109,6.13108375 47.4122109,7.90959238 C47.4122109,9.68257769 48.1689056,10.8479979 49.5221186,10.8479979 Z M59.9501529,12.1515012 L59.9501529,11.1517805 L59.8838731,11.1517805 C59.6187538,11.6654491 58.8178726,12.3337707 57.5585559,12.3337707 C55.9181303,12.3337707 54.7030001,11.3450966 54.7030001,9.88694048 C54.7030001,7.97034888 56.2937159,7.09766452 59.154795,7.09766452 L59.9059664,7.09766452 L59.9059664,6.83254523 C59.9059664,5.50142541 59.2210749,4.96014018 58.2544941,4.96014018 C57.3762864,4.96014018 56.7576747,5.41857563 56.4152289,6.1752703 L54.7913732,5.75549808 C55.3878917,4.03222263 57.0504106,3.55721722 58.287634,3.55721722 C60.0716659,3.55721722 61.6458118,4.40228499 61.6458118,6.99824479 L61.6458118,12.1515012 L59.9501529,12.1515012 Z M59.9059664,8.36250451 L59.1658417,8.36250451 C57.525416,8.36250451 56.4097056,8.72152023 56.4097056,9.84275393 C56.4097056,10.693345 57.1498303,10.9308477 57.7297788,10.9308477 C58.9835722,10.9308477 59.9059664,10.1465365 59.9059664,9.24623551 L59.9059664,8.36250451 Z M68.0362997,3.58483382 L68.0362997,5.2915393 C67.9037401,5.26944603 67.677284,5.25287607 67.4121647,5.25287607 C66.1638947,5.25287607 65.3851068,6.28573667 65.3685368,7.27441072 L65.3685368,12.1515012 L63.6342147,12.1515012 L63.6342147,3.6676836 L65.3685368,3.6676836 L65.3685368,4.99328009 L65.4513866,4.99328009 C65.6944126,4.26420202 66.5891902,3.54064727 67.4839679,3.54064727 C67.7049006,3.54064727 67.9258334,3.55721722 68.0362997,3.58483382 Z M76.713439,12.1515012 L75.06749,12.1515012 L75.0343501,11.3616666 L74.9570236,11.3616666 C74.5096348,11.9250451 73.81922,12.322724 72.7918827,12.322724 C70.5715086,12.322724 69.0581192,10.5442154 69.0581192,7.9151157 C69.0581192,5.31363258 70.5715086,3.55721722 72.7863594,3.55721722 C73.7805567,3.55721722 74.4599249,3.94384953 74.9073137,4.49065809 L74.9791169,4.49065809 L74.9791169,0.839744413 L76.713439,0.839744413 L76.713439,12.1515012 Z M70.7482548,7.9151157 C70.7482548,9.66600773 71.5767526,10.8479979 72.9023491,10.8479979 C73.924163,10.8479979 74.7471375,10.1354898 74.9570236,9.25175883 C75.0730133,8.79332337 75.1006299,8.17471168 75.1061532,7.90406906 C75.1006299,7.64447308 75.0785366,7.11423448 74.9515003,6.64475239 C74.7305676,5.86044113 74.0125361,5.02089669 72.9078724,5.02089669 C71.5767526,5.02089669 70.7482548,6.18079362 70.7482548,7.9151157 Z"/>
              </g>
            </g>
          </g>
        </g>
      </g>
      <g transform="translate(589.347 116.031)">
        <path fill="url(#infin-k)" fill-rule="nonzero" d="M172.126156,93.4471119 C167.923466,85.8558627 164.658526,80.5953919 160.77067,75.5554814 C153.312023,62.7646487 124.385659,31.1520193 107.436115,20.296975 C106.316305,19.5798121 112.834914,18.4648492 113.94837,19.3399636 C138.922485,38.9682413 153.971845,58.7847819 161.907708,68.0458305 C165.830068,73.7137261 170.916527,81.904012 177.167086,92.6166882 C181.280788,99.6670581 176.002539,100.448957 172.126156,93.4471119 Z" transform="rotate(-9 142.984 58.669)"/>
        <rect width="82.848" height="67.435" x="101.56" y="28.901" fill="url(#infin-l)"/>
        <g transform="rotate(-6 127.272 2.308)">
          <path fill="#34A966" d="M21.4669798,117.317463 C19.7343411,112.450964 18.5827624,110.3282 16.0942664,109.030824 C11.7821518,106.782705 6.06753232,106.409057 7.17026423,101.94946 C12.132838,89.4101947 36.5129061,77.9974204 33.2954803,75.8220356 C27.8905901,71.6883889 18.1778075,79.1246203 4.15713248,97.6414809 C3.21094828,89.0360059 3.52292823,84.2190042 5.09307232,83.1728809 C14.8581263,70.5311061 46.3739886,61.3878894 43.7188697,54.9439638 C37.1250559,50.0673781 7.11151186,74.3473572 3.57717819,77.5961392 C3.66285404,73.003466 2.17119906,62.2700554 7.78566554,54.9156538 C20.5416625,44.6454892 53.9165662,40.8574993 53.3961067,37.3001224 C51.4429053,32.2312107 28.9697794,28.5069729 8.29504545,49.9070115 C9.14925618,42.6801582 12.5067027,34.9749338 19.7891961,27.9124144 C31.5014707,18.105379 59.5596191,24.7138824 62.6632237,22.6244946 C63.400273,21.5707417 61.0987908,20.2847092 60.5043848,20.0264946 C52.6577944,16.6178734 42.4431157,15.6521815 30.8202581,17.8327124 C31.0483363,17.2301237 44.1433884,5.96979057 68.6190786,7.64040341 C75.0195537,8.42864333 79.7591554,10.5885423 87.4270955,23.4757087 C87.524452,23.0982921 87.8290958,22.7863074 88.3410267,22.5397545 C95.6326324,14.1456321 105.503855,19.6657475 112.559508,25.2482863 C127.480498,38.8874095 120.830654,49.805649 119.909469,55.4460289 C116.555534,52.656042 122.108087,45.6372476 97.7603044,29.6653395 C92.5525752,29.9497374 109.187268,39.9447789 115.664289,61.5361561 C116.587381,69.9733882 109.10713,76.2538549 103.667389,81.3672997 C104.274799,67.5978372 95.0956156,45.4083861 85.7870596,42.6997928 C81.3621978,42.0313033 94.8869466,55.4220483 93.1947374,84.9265323 C91.6994915,87.5900247 85.6883395,92.1860772 75.1612813,98.6177311 C77.0998152,64.5835222 74.1909233,48.1642476 66.4346057,49.4635106 C62.948928,51.2207908 69.1041394,62.6160642 71.1897744,80.4345536 C71.5489049,83.5112661 71.3182793,89.3979543 70.4978974,98.0808134 C70.3688077,99.4455771 69.4813679,100.67506 68.1728882,101.300906 C60.7043569,104.841215 55.6812614,107.093047 53.1036018,108.093128 C56.8881118,97.6146369 54.441717,71.4409585 49.6044407,70.5805347 C44.7221754,70.5921811 50.5661861,104.501448 44.5828634,109.814371 C41.5521932,112.478768 35.9371452,113.101932 25.9062866,113.58603 C24.6501658,113.646389 21.9989151,114.565209 21.4669798,117.317463 Z" transform="rotate(-3 62.818 62.394)"/>
          <g fill="#C2D5A3" transform="rotate(-5 106.174 -183.14)">
            <path fill-rule="nonzero" d="M29.9953673,48.2809022 L31.8463023,47.0519186 C35.4746648,52.5751349 38.0897516,58.2304727 39.68766,64.0160017 C40.7504031,67.8638633 41.1067845,74.2325666 40.7568044,83.1221114 C39.9569521,83.1221114 39.7040032,70.0171027 38.1659707,64.4483659 C36.6317321,58.8933657 33.4990806,53.6143732 29.9953673,48.2809022 Z"/>
            <path fill-rule="nonzero" d="M46.0576273,32.9310955 L47.7181016,31.6891465 C51.3670059,33.679802 59.341388,43.4891201 61.4969619,52.0864902 C62.9340112,57.8180702 63.2595142,64.7538585 62.4734708,72.8938551 C61.9455219,72.8194059 62.0793938,60.5971342 59.9604563,52.6794787 C57.6639662,44.2689402 49.2320475,34.2038848 46.0576273,32.9310955 Z" transform="rotate(-3 54.474 52.292)"/>
            <path fill-rule="nonzero" d="M63.267664,20.0856204 L65.413656,19.5103696 C71.2017597,26.0028503 74.7006472,32.4326873 76.8903196,40.6146324 C78.3376177,46.0226166 79.0582458,52.187164 79.052204,59.1082746 C78.2177024,57.2323967 77.543853,49.6428323 75.4264626,41.7309763 C73.3277973,33.8890891 68.8255452,26.3198618 63.267664,20.0856204 Z" transform="rotate(-22 71.16 39.31)"/>
            <path fill-rule="nonzero" d="M41.5769034,3.18189046 C42.617265,2.74229223 52.7422841,10.4572806 55.7978001,19.4955818 C56.5685164,21.712509 57.1529559,23.4075731 57.5704718,25.6460878 L55.7973061,25.6269955 C55.3902797,23.44472 54.482828,20.7533556 54.0672546,19.5099475 C52.3775974,14.4544422 48.214147,9.01175649 41.5769034,3.18189046 Z" transform="rotate(-28 49.574 14.405)"/>
            <path fill-rule="nonzero" d="M73.5305141,10.8602742 C74.9874398,10.8347577 84.6095003,17.1838895 85.3411447,33.1906026 C85.407105,34.6336644 86.0534868,35.8662129 86.3604503,37.1751577 C86.5688041,38.0636137 87.0875597,39.4967115 86.89793,40.000027 L84.2279778,39.7963546 C85.0478581,37.4050094 83.9327575,36.2095938 83.7260154,33.2188899 C83.049896,23.4382371 79.6513955,15.9853652 73.5305141,10.8602742 Z" transform="scale(1 -1) rotate(86 107.505 0)"/>
            <path fill-rule="nonzero" d="M26.6470639,8.37576355 C27.7640609,7.98297626 34.2402973,20.3962897 36.8936108,27.91208 C39.14032,34.6384794 39.2191588,39.6962226 39.3081709,42.1026547 C37.7622545,41.8541015 36.9892963,41.7298248 36.9892963,41.7298248 C36.9892963,41.7298248 37.7918599,35.416777 34.7636775,26.8786547 C31.9577139,18.9670902 29.252176,12.7994599 26.6470639,8.37576355 Z" transform="rotate(-63 32.978 25.235)"/>
            <path fill-rule="nonzero" d="M10.1298035,27.5720417 C10.4866954,27.2853926 18.6665278,37.4484705 22.02397,44.063699 C25.0724623,50.0701981 26.8510605,55.9363517 27.3517964,61.6585284 C27.4083798,62.3051366 25.4725501,61.979078 25.3760388,61.0726866 C24.820008,55.8506943 23.0967765,50.2247548 20.5508309,44.8514186 C17.5629804,38.5454218 9.77291151,27.8586907 10.1298035,27.5720417 Z" transform="rotate(-77 18.735 44.782)"/>
            <path fill-rule="nonzero" d="M9.60418672,53.6656742 C9.92149075,53.4693039 14.074508,60.1205109 15.2992253,62.7928666 C16.4587333,65.3229342 17.1568341,67.1218081 18.4803343,71.9064273 C18.5547664,72.1755087 16.3757063,71.7757061 16.2153793,70.89929 C15.6779777,67.9616223 14.638513,64.2002109 13.5691318,61.8179146 C12.1669089,58.6941358 9.29183423,53.8589802 9.60418672,53.6656742 Z" transform="rotate(-85 14.031 62.825)"/>
            <path d="M70.1630983,21.3987716 C69.5531196,19.5735622 68.3640552,18.8609994 66.5959051,19.2610831 C59.118414,21.2616646 51.5662325,25.5259707 39.3550455,37.7615014 C32.529376,44.9763061 21.2593745,55.5622693 7.55261721,86.3680391 C5.08772614,91.9078517 5.62528783,91.995594 8.3289393,86.5047194 C23.600123,55.4903097 33.8759397,46.4432476 42.3374528,38.6166357 C51.4006412,29.2538753 60.6758563,23.5145873 70.1630983,21.3987716 Z" filter="url(#infin-m)" transform="rotate(-3 38.067 54.863)"/>
          </g>
        </g>
      </g>
      <g transform="translate(26.423)">
        <rect width="819.112" height="56.292"/>
        <g transform="translate(439.953 16.084)">
          <g transform="translate(274.37)">
            <rect width="77.229" height="24.388" x=".039" y=".175" fill="#34A966" rx="2.4"/>
            <path fill="#FFF" d="M23.504296,9.31430073 C23.400898,8.57066567 22.8322095,8.11488934 21.9215124,8.11488934 C20.9790006,8.11488934 20.3944047,8.5746637 20.3944047,9.2583282 C20.3944047,9.85003781 20.8915101,10.1938691 21.9016282,10.4937219 L22.5180389,10.6736336 C24.0531003,11.133408 24.8564226,11.7890862 24.8564226,12.9884976 C24.8564226,14.3638227 23.8423276,15.4113086 21.8936745,15.4113086 C20.2393078,15.4113086 18.9269497,14.5277422 18.8633202,12.9485172 L20.1677247,12.9485172 C20.2512384,13.8080954 20.9471859,14.2718678 21.9533272,14.2718678 C22.9435611,14.2718678 23.5639486,13.7361307 23.5639486,13.0444701 C23.5639486,12.4247743 23.1105885,12.0529567 21.957304,11.7051274 L21.249426,11.5012275 C19.9171836,11.1094198 19.0939771,10.505716 19.0939771,9.27032231 C19.0939771,7.88700118 20.3347521,6.97944656 21.9612809,6.97944656 C23.5957633,6.97944656 24.7331404,7.93097959 24.7848394,9.31430073 L23.504296,9.31430073 Z M26.789175,8.45072453 C26.331838,8.45072453 26.0097138,8.11488934 26.0097138,7.71508554 C26.0097138,7.3312739 26.331838,6.97944656 26.789175,6.97944656 C27.2465119,6.97944656 27.5646594,7.3312739 27.5646594,7.71508554 C27.5646594,8.11488934 27.2465119,8.45072453 26.789175,8.45072453 Z M27.4175162,9.13838706 L27.4175162,15.2793734 L26.1687875,15.2793734 L26.1687875,9.13838706 L27.4175162,9.13838706 Z M32.9413537,9.17037136 L34.1304298,9.17037136 L34.1304298,15.2673793 C34.1304298,16.7546494 32.9373769,17.5982354 31.3585702,17.5982354 C30.1496099,17.5982354 29.3701487,17.0824885 29.0042791,16.614718 L29.7280646,15.8351006 C30.0064436,16.1029692 30.45185,16.5507494 31.338686,16.5507494 C32.2811978,16.5507494 32.8896548,16.1189613 32.8976084,15.0994617 L32.8976084,14.6156991 L32.833979,14.6156991 C32.5078778,14.9955127 32.0266798,15.2633812 31.3267555,15.2633812 C29.7280646,15.2633812 28.6185254,14.0359836 28.6185254,12.1449116 C28.6185254,10.3178083 29.716134,9.0584263 31.3227786,9.0584263 C32.0664483,9.0584263 32.5555999,9.34228699 32.8697705,9.74209079 L32.9214695,9.74209079 L32.9413537,9.17037136 Z M29.8354393,12.1449116 C29.8354393,13.4282818 30.4558268,14.2039012 31.4062923,14.2039012 C32.1420083,14.2039012 32.7385347,13.7041464 32.8896548,13.0764545 C32.9771453,12.7526134 32.9930527,12.3208253 32.9970295,12.1249214 C32.9930527,11.9450097 32.9811221,11.6011784 32.8856779,11.2573472 C32.7186505,10.6976219 32.2175683,10.1059122 31.4102692,10.1059122 C30.4319658,10.1059122 29.8354393,10.92551 29.8354393,12.1449116 Z M36.8108283,11.7770921 L36.8108283,15.2793734 L35.5620996,15.2793734 L35.5620996,9.13838706 L36.7631062,9.13838706 L36.7631062,10.0419436 L36.8267357,10.0419436 C37.1329526,9.48221832 37.7334559,9.0584263 38.5765466,9.0584263 C39.6860858,9.0584263 40.5768987,9.75808294 40.5768987,11.4012765 L40.5768987,15.2793734 L39.32817,15.2793734 L39.32817,11.4652452 C39.32817,10.6536434 38.8310646,10.1618848 38.1550013,10.1618848 C37.4590538,10.1618848 36.8108283,10.7256081 36.8108283,11.7770921 Z M50.2804047,7.09139162 L51.564925,7.09139162 L51.564925,12.4847448 C51.564925,14.3158462 50.0855394,15.3913184 48.3357284,15.3913184 C46.5302417,15.3913184 45.1463003,14.3158462 45.1463003,12.4847448 L45.1463003,7.09139162 L46.4308206,7.09139162 L46.4308206,12.4847448 C46.4308206,13.5362288 47.2858419,14.2398835 48.347659,14.2398835 C49.4015224,14.2398835 50.2804047,13.5362288 50.2804047,12.4847448 L50.2804047,7.09139162 Z M53.0801098,17.5822432 L53.0801098,9.13838706 L54.2691859,9.13838706 L54.3010006,9.73409471 L54.3845143,9.73409471 C54.7066386,9.33828896 55.1918134,9.0584263 55.911622,9.0584263 C57.5063361,9.0584263 58.5920142,10.3298024 58.5920142,12.2128783 C58.5920142,14.1159443 57.5063361,15.4033125 55.9036683,15.4033125 C55.1639755,15.4033125 54.670847,15.1154538 54.3447459,14.7076539 L54.3288385,14.7076539 L54.3288385,17.5822432 L53.0801098,17.5822432 Z M54.3447459,13.1804034 C54.4958659,13.8200895 55.0923924,14.3358364 55.8281083,14.3358364 C56.7785738,14.3358364 57.3751002,13.4802563 57.3751002,12.2128783 C57.3751002,10.9574943 56.7785738,10.1179064 55.8241315,10.1179064 C55.0287629,10.1179064 54.5117733,10.7256081 54.3487227,11.2933295 C54.2572553,11.6331627 54.241348,12.0169744 54.2373711,12.2048822 C54.241348,12.396788 54.265209,12.8445682 54.3447459,13.1804034 Z"/>
          </g>
          <path fill="#252C34" d="M220.792256 14.9760944L220.792256 16.0835509 215.9763 16.0835509 215.9763 7.89556917 217.26082 7.89556917 217.26082 14.9760944 220.792256 14.9760944zM224.494703 16.199494C222.860221 16.199494 221.746705 15.0000826 221.746705 13.0130578 221.746705 11.1019956 222.884082 9.86260384 224.490726 9.86260384 226.117255 9.86260384 227.274516 11.0180368 227.274516 13.0130578 227.274516 15.0520571 226.145093 16.199494 224.494703 16.199494zM224.490726 15.140014C225.453122 15.140014 226.061579 14.3963789 226.061579 13.0130578 226.061579 11.6417307 225.445169 10.9220839 224.490726 10.9220839 223.564122 10.9220839 222.971572 11.7256895 222.971572 13.0130578 222.971572 14.2964279 223.5164 15.140014 224.490726 15.140014zM232.519978 9.97454891L233.709055 9.97454891 233.709055 16.0715568C233.709055 17.5588269 232.516002 18.4024129 230.937195 18.4024129 229.728235 18.4024129 228.948773 17.886666 228.582904 17.4188956L229.306689 16.6392782C229.585068 16.9071467 230.030475 17.354927 230.917311 17.354927 231.859823 17.354927 232.46828 16.9231389 232.476233 15.9036392L232.476233 15.4198766 232.412604 15.4198766C232.086503 15.7996902 231.605305 16.0675588 230.90538 16.0675588 229.306689 16.0675588 228.19715 14.8401611 228.19715 12.9490892 228.19715 11.1219858 229.294759 9.86260384 230.901403 9.86260384 231.645073 9.86260384 232.134225 10.1464645 232.448395 10.5462683L232.500094 10.5462683 232.519978 9.97454891zM229.414064 12.9490892C229.414064 14.2324593 230.034452 15.0080787 230.984917 15.0080787 231.720633 15.0080787 232.317159 14.508324 232.46828 13.880632 232.55577 13.5567909 232.571677 13.1250028 232.575654 12.929099 232.571677 12.7491873 232.559747 12.405356 232.464303 12.0615247 232.297275 11.5017994 231.796193 10.9100898 230.988894 10.9100898 230.010591 10.9100898 229.414064 11.7296876 229.414064 12.9490892zM239.523208 7.89556917L239.523208 16.0835509 238.234711 16.0835509 238.234711 7.89556917 239.523208 7.89556917zM242.34677 12.5812697L242.34677 16.0835509 241.098041 16.0835509 241.098041 9.9425646 242.299047 9.9425646 242.299047 10.8461212 242.362677 10.8461212C242.668894 10.2863959 243.269397 9.86260384 244.112488 9.86260384 245.222027 9.86260384 246.11284 10.5622605 246.11284 12.2054541L246.11284 16.0835509 244.864111 16.0835509 244.864111 12.2694227C244.864111 11.457821 244.367006 10.9660623 243.690943 10.9660623 242.994995 10.9660623 242.34677 11.5297857 242.34677 12.5812697zM5.34090016 11.4298347L5.34090016 12.5372912 2.08386574 12.5372912 2.08386574 16.0835509.799345444 16.0835509.799345444 7.89556917 5.87777396 7.89556917 5.87777396 9.00302568 2.08386574 9.00302568 2.08386574 11.4298347 5.34090016 11.4298347zM9.80690103 16.2074901C8.00539114 16.2074901 6.93164353 14.8761434 6.93164353 13.0450421 6.93164353 11.1979485 7.96959956 9.86260384 9.67566521 9.86260384 11.2584487 9.86260384 12.3282195 10.8541173 12.3282195 12.9570852L12.3282195 13.4848262 8.17241855 13.4848262C8.30763121 14.508324 8.92006504 15.140014 9.84269261 15.140014 10.5147791 15.140014 10.9522318 14.8441591 11.2385645 14.3204162L12.1572152 14.9201219C11.8032762 15.6397687 11.0039308 16.2074901 9.80690103 16.2074901zM9.67964205 10.9220839C8.8524587 10.9220839 8.3155849 11.5737641 8.18037224 12.5412893L11.1431203 12.5412893C11.1431203 11.565768 10.6142002 10.9220839 9.67964205 10.9220839zM17.0487382 16.0835509L17.0487382 15.359906 17.001016 15.359906C16.8101276 15.7317236 16.2334853 16.2154862 15.3267651 16.2154862 14.1456428 16.2154862 13.2707373 15.4998374 13.2707373 14.4443553 13.2707373 13.0570362 14.4160681 12.4253462 16.4760728 12.4253462L17.0169234 12.4253462 17.0169234 12.2334404C17.0169234 11.2699132 16.5237949 10.8781055 15.8278474 10.8781055 15.1955293 10.8781055 14.7501229 11.2099426 14.5035586 11.7576738L13.3343668 11.453823C13.7638658 10.2064351 14.9608956 9.86260384 15.8517084 9.86260384 17.1362287 9.86260384 18.269629 10.4743037 18.269629 12.3533815L18.269629 16.0835509 17.0487382 16.0835509zM17.0169234 13.3408969L16.4840265 13.3408969C15.3029041 13.3408969 14.4995818 13.6007693 14.4995818 14.412371 14.4995818 15.0280689 15.0324788 15.1999845 15.4500473 15.1999845 16.3527906 15.1999845 17.0169234 14.6322631 17.0169234 13.9805829L17.0169234 13.3408969zM22.5686022 9.9425646L22.5686022 10.9620643 21.3874798 10.9620643 21.3874798 14.2644436C21.3874798 15.0080787 21.9044694 15.0520571 22.2067095 15.0520571 22.3777137 15.0520571 22.4691811 15.040063 22.6083706 15.0320669L22.6083706 16.0835509C22.3299916 16.1435215 22.2067095 16.1555156 21.8567473 16.1555156 21.053425 16.1555156 20.1387511 15.5837962 20.1387511 14.508324L20.1387511 10.9620643 19.2360077 10.9620643 19.2360077 9.9425646 20.1387511 9.9425646 20.1387511 8.63120815 21.3874798 8.63120815 21.3874798 9.9425646 22.5686022 9.9425646zM27.456146 13.4968204L27.456146 9.9425646 28.7048747 9.9425646 28.7048747 16.0835509 27.507845 16.0835509 27.507845 15.2919394 27.4442155 15.2919394C27.1220912 15.7517138 26.5335185 16.1635117 25.6904277 16.1635117 24.7479159 16.1635117 23.6900757 15.4918413 23.6900757 13.8206614L23.6900757 9.9425646 24.9388044 9.9425646 24.9388044 13.8006712C24.9388044 14.6122729 25.4359098 15.0600532 26.1159499 15.0600532 26.8079206 15.0600532 27.456146 14.5483043 27.456146 13.4968204zM33.3060882 9.88259403L33.3060882 11.1179878C33.210644 11.1019956 33.0475934 11.0900015 32.856705 11.0900015 31.9579385 11.0900015 31.3972036 11.8376346 31.3852731 12.5532834L31.3852731 16.0835509 30.1365444 16.0835509 30.1365444 9.9425646 31.3852731 9.9425646 31.3852731 10.9020937 31.4449257 10.9020937C31.6199068 10.3743527 32.2641554 9.85060973 32.9084039 9.85060973 33.0674777 9.85060973 33.2265514 9.86260384 33.3060882 9.88259403zM36.9170657 16.2074901C35.1155558 16.2074901 34.0418082 14.8761434 34.0418082 13.0450421 34.0418082 11.1979485 35.0797642 9.86260384 36.7858298 9.86260384 38.3686134 9.86260384 39.4383841 10.8541173 39.4383841 12.9570852L39.4383841 13.4848262 35.2825832 13.4848262C35.4177958 14.508324 36.0302297 15.140014 36.9528572 15.140014 37.6249437 15.140014 38.0623964 14.8441591 38.3487291 14.3204162L39.2673799 14.9201219C38.9134408 15.6397687 38.1140954 16.2074901 36.9170657 16.2074901zM36.7898067 10.9220839C35.9626233 10.9220839 35.4257495 11.5737641 35.2905369 12.5412893L38.2532849 12.5412893C38.2532849 11.565768 37.7243648 10.9220839 36.7898067 10.9220839zM40.5041841 11.6497268C40.5041841 10.6622114 41.4069274 9.86260384 42.735193 9.86260384 43.749288 9.86260384 44.5685176 10.2624076 44.9542714 10.9380761L44.0714123 11.5817602C43.8725701 11.2859054 43.4510247 10.9140878 42.7709846 10.9140878 42.1744581 10.9140878 41.7449591 11.2259348 41.7449591 11.6337347 41.7449591 12.0175463 42.0631065 12.2374384 42.6874709 12.405356L43.3873953 12.5892657C44.5048881 12.9091088 45.0536925 13.5288047 45.0536925 14.3563985 45.0536925 15.4038845 44.1509491 16.2074901 42.683494 16.2074901 41.7171212 16.2074901 40.8382389 15.8516647 40.4007862 15.1040316L41.3353443 14.4203671C41.5381633 14.728216 41.9636855 15.1280198 42.6715635 15.1280198 43.3158121 15.1280198 43.8089406 14.832165 43.8089406 14.4003769 43.8089406 14.0205633 43.4629553 13.7606909 42.8306372 13.5727831L42.0471992 13.3608871C40.9734515 13.0490401 40.5041841 12.4333423 40.5041841 11.6497268zM80.5339847 13.0650323L78.8756412 13.0650323 78.8756412 16.0835509 77.5911209 16.0835509 77.5911209 7.89556917 80.4624016 7.89556917C82.3474251 7.89556917 83.2859601 9.05899821 83.2859601 10.5302762 83.2859601 12.0815149 82.0889303 13.0650323 80.5339847 13.0650323zM78.8756412 9.00300681L78.8756412 11.9615738 80.3669573 11.9615738C81.4844502 11.9535777 82.0093935 11.3018975 82.0093935 10.5022899 82.0093935 9.63071764 81.5878481 8.99902764 80.4624016 9.00302568L78.8756412 9.00300681zM87.7519615 9.88259403L87.7519615 11.1179878C87.6565173 11.1019956 87.4934667 11.0900015 87.3025783 11.0900015 86.4038118 11.0900015 85.8430769 11.8376346 85.8311464 12.5532834L85.8311464 16.0835509 84.5824177 16.0835509 84.5824177 9.9425646 85.8311464 9.9425646 85.8311464 10.9020937 85.890799 10.9020937C86.0657801 10.3743527 86.7100287 9.85060973 87.3542772 9.85060973 87.513351 9.85060973 87.6724247 9.86260384 87.7519615 9.88259403zM89.386448 9.25490207C88.929111 9.25490207 88.6069867 8.91906688 88.6069867 8.51926309 88.6069867 8.13545144 88.929111 7.7836241 89.386448 7.7836241 89.8437849 7.7836241 90.1619324 8.13545144 90.1619324 8.51926309 90.1619324 8.91906688 89.8437849 9.25490207 89.386448 9.25490207zM90.0147892 9.9425646L90.0147892 16.0835509 88.7660605 16.0835509 88.7660605 9.9425646 90.0147892 9.9425646zM96.493069 11.8536267L95.3159235 11.9615738C95.1966182 11.4978014 94.8029108 10.9220839 93.9757274 10.9220839 93.0014009 10.9220839 92.4327123 11.8136464 92.4327123 13.0170558 92.4327123 14.2764378 93.0212851 15.140014 93.9717506 15.140014 94.7273507 15.140014 95.1687803 14.7082259 95.3079698 14.1524986L96.493069 14.2524495C96.3300185 15.4038845 95.3875067 16.2074901 93.9836811 16.2074901 92.2736386 16.2074901 91.2157984 14.8881376 91.2157984 13.0170558 91.2157984 11.1859544 92.2617081 9.86260384 93.9757274 9.86260384 95.3556919 9.86260384 96.3300185 10.6861997 96.493069 11.8536267zM98.26277 9.25490207C97.8054331 9.25490207 97.4833088 8.91906688 97.4833088 8.51926309 97.4833088 8.13545144 97.8054331 7.7836241 98.26277 7.7836241 98.720107 7.7836241 99.0382544 8.13545144 99.0382544 8.51926309 99.0382544 8.91906688 98.720107 9.25490207 98.26277 9.25490207zM98.8911112 9.9425646L98.8911112 16.0835509 97.6423825 16.0835509 97.6423825 9.9425646 98.8911112 9.9425646zM101.595367 12.5812697L101.595367 16.0835509 100.346638 16.0835509 100.346638 9.9425646 101.547645 9.9425646 101.547645 10.8461212 101.611274 10.8461212C101.917491 10.2863959 102.517995 9.86260384 103.361085 9.86260384 104.470625 9.86260384 105.361437 10.5622605 105.361437 12.2054541L105.361437 16.0835509 104.112709 16.0835509 104.112709 12.2694227C104.112709 11.457821 103.615603 10.9660623 102.93954 10.9660623 102.243592 10.9660623 101.595367 11.5297857 101.595367 12.5812697zM110.861417 9.97454891L112.050493 9.97454891 112.050493 16.0715568C112.050493 17.5588269 110.857441 18.4024129 109.278634 18.4024129 108.069674 18.4024129 107.290212 17.886666 106.924343 17.4188956L107.648128 16.6392782C107.926507 16.9071467 108.371914 17.354927 109.25875 17.354927 110.201261 17.354927 110.809718 16.9231389 110.817672 15.9036392L110.817672 15.4198766 110.754043 15.4198766C110.427942 15.7996902 109.946744 16.0675588 109.246819 16.0675588 107.648128 16.0675588 106.538589 14.8401611 106.538589 12.9490892 106.538589 11.1219858 107.636198 9.86260384 109.242842 9.86260384 109.986512 9.86260384 110.475664 10.1464645 110.789834 10.5462683L110.841533 10.5462683 110.861417 9.97454891zM107.755503 12.9490892C107.755503 14.2324593 108.375891 15.0080787 109.326356 15.0080787 110.062072 15.0080787 110.658598 14.508324 110.809718 13.880632 110.897209 13.5567909 110.913116 13.1250028 110.917093 12.929099 110.913116 12.7491873 110.901186 12.405356 110.805742 12.0615247 110.638714 11.5017994 110.137632 10.9100898 109.330333 10.9100898 108.352029 10.9100898 107.755503 11.7296876 107.755503 12.9490892zM148.290931 10.1184783C148.187533 9.37484321 147.618845 8.91906688 146.708148 8.91906688 145.765636 8.91906688 145.18104 9.37884125 145.18104 10.0625057 145.18104 10.6542154 145.678145 10.9980466 146.688263 11.2978995L147.304674 11.4778112C148.839735 11.9375855 149.643058 12.5932638 149.643058 13.7926752 149.643058 15.1680002 148.628963 16.2154862 146.68031 16.2154862 145.025943 16.2154862 143.713585 15.3319198 143.649955 13.7526948L144.95436 13.7526948C145.037873 14.6122729 145.733821 15.0760453 146.739962 15.0760453 147.730196 15.0760453 148.350584 14.5403083 148.350584 13.8486477 148.350584 13.2289518 147.897224 12.8571343 146.743939 12.509305L146.036061 12.305405C144.703819 11.9135973 143.880612 11.3098936 143.880612 10.0744999 143.880612 8.69117872 145.121387 7.7836241 146.747916 7.7836241 148.382398 7.7836241 149.519776 8.73515714 149.571475 10.1184783L148.290931 10.1184783zM154.697632 13.4968204L154.697632 9.9425646 155.946361 9.9425646 155.946361 16.0835509 154.749331 16.0835509 154.749331 15.2919394 154.685701 15.2919394C154.363577 15.7517138 153.775004 16.1635117 152.931914 16.1635117 151.989402 16.1635117 150.931562 15.4918413 150.931562 13.8206614L150.931562 9.9425646 152.18029 9.9425646 152.18029 13.8006712C152.18029 14.6122729 152.677396 15.0600532 153.357436 15.0600532 154.049406 15.0600532 154.697632 14.5483043 154.697632 13.4968204zM157.37803 18.3864208L157.37803 9.9425646 158.567106 9.9425646 158.598921 10.5382723 158.682435 10.5382723C159.004559 10.1424665 159.489734 9.86260384 160.209542 9.86260384 161.804256 9.86260384 162.889935 11.1339799 162.889935 13.0170558 162.889935 14.9201219 161.804256 16.2074901 160.201589 16.2074901 159.461896 16.2074901 158.968767 15.9196314 158.642666 15.5118315L158.626759 15.5118315 158.626759 18.3864208 157.37803 18.3864208zM158.642666 13.984581C158.793786 14.6242671 159.390313 15.140014 160.126029 15.140014 161.076494 15.140014 161.673021 14.2844338 161.673021 13.0170558 161.673021 11.7616719 161.076494 10.9220839 160.122052 10.9220839 159.326683 10.9220839 158.809694 11.5297857 158.646643 12.0975071 158.555176 12.4373403 158.539268 12.8211519 158.535292 13.0090597 158.539268 13.2009655 158.563129 13.6487458 158.642666 13.984581zM164.067087 18.3864208L164.067087 9.9425646 165.256163 9.9425646 165.287977 10.5382723 165.371491 10.5382723C165.693615 10.1424665 166.17879 9.86260384 166.898599 9.86260384 168.493313 9.86260384 169.578991 11.1339799 169.578991 13.0170558 169.578991 14.9201219 168.493313 16.2074901 166.890645 16.2074901 166.150952 16.2074901 165.657824 15.9196314 165.331723 15.5118315L165.315815 15.5118315 165.315815 18.3864208 164.067087 18.3864208zM165.331723 13.984581C165.482843 14.6242671 166.079369 15.140014 166.815085 15.140014 167.765551 15.140014 168.362077 14.2844338 168.362077 13.0170558 168.362077 11.7616719 167.765551 10.9220839 166.811108 10.9220839 166.01574 10.9220839 165.49875 11.5297857 165.335699 12.0975071 165.244232 12.4373403 165.228325 12.8211519 165.224348 13.0090597 165.228325 13.2009655 165.252186 13.6487458 165.331723 13.984581zM173.249623 16.199494C171.615141 16.199494 170.501625 15.0000826 170.501625 13.0130578 170.501625 11.1019956 171.639002 9.86260384 173.245647 9.86260384 174.872175 9.86260384 176.029437 11.0180368 176.029437 13.0130578 176.029437 15.0520571 174.900013 16.199494 173.249623 16.199494zM173.245647 15.140014C174.208043 15.140014 174.8165 14.3963789 174.8165 13.0130578 174.8165 11.6417307 174.200089 10.9220839 173.245647 10.9220839 172.319042 10.9220839 171.726493 11.7256895 171.726493 13.0130578 171.726493 14.2964279 172.27132 15.140014 173.245647 15.140014zM180.376132 9.88259403L180.376132 11.1179878C180.280688 11.1019956 180.117637 11.0900015 179.926749 11.0900015 179.027982 11.0900015 178.467248 11.8376346 178.455317 12.5532834L178.455317 16.0835509 177.206588 16.0835509 177.206588 9.9425646 178.455317 9.9425646 178.455317 10.9020937 178.51497 10.9020937C178.689951 10.3743527 179.334199 9.85060973 179.978448 9.85060973 180.137522 9.85060973 180.296595 9.86260384 180.376132 9.88259403zM184.233674 9.9425646L184.233674 10.9620643 183.052552 10.9620643 183.052552 14.2644436C183.052552 15.0080787 183.569541 15.0520571 183.871781 15.0520571 184.042785 15.0520571 184.134253 15.040063 184.273442 15.0320669L184.273442 16.0835509C183.995063 16.1435215 183.871781 16.1555156 183.521819 16.1555156 182.718497 16.1555156 181.803823 15.5837962 181.803823 14.508324L181.803823 10.9620643 180.901079 10.9620643 180.901079 9.9425646 181.803823 9.9425646 181.803823 8.63120815 183.052552 8.63120815 183.052552 9.9425646 184.233674 9.9425646z"/>
        </g>
        <path fill="#252C34" d="M30.0092833,22.4438743 L30.0092833,32.9712794 L28.0254067,32.9712794 L28.0254067,22.4438743 L30.0092833,22.4438743 Z M33.896069,28.6122757 L33.896069,32.9712794 L31.9428709,32.9712794 L31.9428709,25.0757255 L33.773355,25.0757255 L33.773355,26.0935118 L33.8551643,26.0935118 C34.2795503,25.435549 35.0413998,24.9729189 36.0435642,24.9729189 C37.4189838,24.9729189 38.6461239,25.8210741 38.6461239,28.0057162 L38.6461239,32.9712794 L36.6929259,32.9712794 L36.6929259,28.0879616 C36.6929259,27.1369997 36.1253736,26.5972646 35.358411,26.5972646 C34.4738475,26.5972646 33.896069,27.3734551 33.896069,28.6122757 Z M42.9317345,32.9712794 L40.9836496,32.9712794 L40.9836496,26.5407209 L39.848545,26.5407209 L39.848545,25.0757255 L40.9836496,25.0757255 L40.9836496,24.8084282 C40.9836496,23.1429598 42.2721467,22.2999449 43.7089233,22.2999449 C44.0208214,22.2999449 44.4554335,22.3410676 44.6343915,22.3821903 L44.6343915,23.9345713 C44.4707728,23.9140099 44.3173803,23.8934486 44.056613,23.8934486 C43.5453046,23.8934486 42.9317345,24.06822 42.9317345,24.8084282 L42.9317345,25.0757255 L44.4912251,25.0757255 L44.486112,26.5407209 L42.9317345,26.5407209 L42.9317345,32.9712794 Z M46.9258964,24.3972014 C46.2867609,24.3972014 45.801018,23.9242906 45.801018,23.3485731 C45.801018,22.793417 46.2867609,22.2999449 46.9258964,22.2999449 C47.5650319,22.2999449 48.0354356,22.793417 48.0354356,23.3485731 C48.0354356,23.9242906 47.5650319,24.3972014 46.9258964,24.3972014 Z M47.8973823,25.0757255 L47.8973823,32.9712794 L45.9441843,32.9712794 L45.9441843,25.0757255 L47.8973823,25.0757255 Z M51.7330372,28.6122757 L51.7330372,32.9712794 L49.7798391,32.9712794 L49.7798391,25.0757255 L51.6103232,25.0757255 L51.6103232,26.0935118 L51.6921325,26.0935118 C52.1165185,25.435549 52.878368,24.9729189 53.8805324,24.9729189 C55.255952,24.9729189 56.4830921,25.8210741 56.4830921,28.0057162 L56.4830921,32.9712794 L54.529894,32.9712794 L54.529894,28.0879616 C54.529894,27.1369997 53.9623417,26.5972646 53.1953792,26.5972646 C52.3108156,26.5972646 51.7330372,27.3734551 51.7330372,28.6122757 Z"/>
      </g>
    </g>
    <g transform="translate(0 41)">
      <path fill="url(#infin-n)" d="M6.76923077,0 L873.230769,-8.8817842e-16 C876.969312,-1.57493761e-15 880,3.03068785 880,6.76923077 L880,41 L0,41 L0,6.76923077 C-4.57839462e-16,3.03068785 3.03068785,-2.86595449e-15 6.76923077,-3.55271368e-15 Z"/>
      <rect width="880" height="1" y="41" fill="#000" opacity=".2"/>
      <g fill="#000" opacity=".21" transform="translate(14.226 15.341)">
        <ellipse cx="5.081" cy="5.146" rx="5.081" ry="5.122"/>
        <ellipse cx="22.356" cy="5.146" rx="5.081" ry="5.122"/>
        <ellipse cx="40.647" cy="5.146" rx="5.081" ry="5.122"/>
      </g>
      <use fill="#FFF" xlink:href="#infin-o"/>
      <rect width="799" height="24" x="71.5" y="8.5" stroke="#000" stroke-opacity=".25" rx="3.385"/>
    </g>
  </g>
</svg>
