<svg xmlns="http://www.w3.org/2000/svg" width="110" height="60" viewBox="0 0 110 60">
  <g fill="none" fill-rule="evenodd">
    <rect width="110" height="60" fill="#F8D247" rx="4"/>
    <path fill="#000" fill-rule="nonzero" d="M21.202963,18.8728008 C21.1792593,18.8493999 21.0014815,18.8025982 20.8,18.7791973 C18.8562963,18.4281843 18.1925926,18.0888717 13.5348148,15.0701596 C11.4962963,13.7480105 9.12592593,12.2152536 8.27259259,11.6536327 C7.40740741,11.0920119 6.28148148,10.3665849 5.7837037,10.0506732 L4.85925926,9.46565148 L4.85925926,14.0756227 L4.85925926,18.6972943 L4.02962963,18.7089947 C3.57925926,18.7089947 2.79703704,18.7089947 2.31111111,18.7089947 C1.82518519,18.7089947 1.10222222,18.7089947 0.711111111,18.7089947 L0,18.6972943 L0,9.62945756 C0,4.64507248 0.0237037037,0.561620854 0.0474074074,0.561620854 C0.106666667,0.561620854 2.59555556,2.17628081 7.40740741,5.30029681 C12.1125926,8.36581064 12.717037,8.75192498 12.8118519,8.75192498 C12.8711111,8.75192498 12.9185185,8.57641846 12.9185185,8.35411021 C12.9185185,7.74568762 13.4755556,5.97892201 13.9614815,5.06628812 C15.2651852,2.62089732 17.7777778,0.725426937 20.4444444,0.198907386 C24.8177778,-0.666924764 29.1437037,1.46255431 31.0637037,5.41730116 C31.7392593,6.80965286 31.9288889,7.64038371 31.9407407,9.27844453 C31.9407407,11.3143201 31.7274074,12.2386545 30.9214815,13.7948122 C29.6296296,16.240203 27.4251852,17.936766 24.5333333,18.7089947 C24.0474074,18.8376995 21.2977778,18.9781047 21.202963,18.8728008 Z M24.4266667,13.6895083 C26.9511111,12.4726631 27.8518519,9.62945756 26.5125926,7.13726502 C26.1925926,6.5522433 25.2325926,5.68641115 24.5096296,5.33539812 C22.6488889,4.43446466 20.4207407,4.820579 19.0340741,6.29483374 C16.6637037,8.78702628 17.6355556,12.7183723 20.8948148,13.9118166 C21.3807407,14.0873231 21.7481481,14.1341248 22.5896296,14.0990235 C23.5140741,14.0756227 23.7748148,14.0171205 24.4266667,13.6895083 Z" transform="matrix(1 0 0 -1 39 39.977)"/>
  </g>
</svg>
