<?xml version="1.0" encoding="UTF-8"?>
<svg width="52px" height="48px" viewBox="0 0 52 48" version="1.1" xmlns="http://www.w3.org/2000/svg" xmlns:xlink="http://www.w3.org/1999/xlink">
    <!-- Generator: Sketch 43.2 (39069) - http://www.bohemiancoding.com/sketch -->
    <title>logo</title>
    <desc>Created with Sketch.</desc>
    <defs></defs>
    <g id="Page-1" stroke="none" stroke-width="1" fill="none" fill-rule="evenodd">
        <g id="Artboard-2" transform="translate(-168.000000, -117.000000)">
            <g id="logo" transform="translate(168.000000, 117.000000)">
                <path d="M8.49744877,36.7744671 C8.49744877,36.7744671 9.98336294,26.6804865 21.2814043,21.4027922 C32.5794456,16.125098 41.0980984,21.5456097 41.0980984,21.5456097" id="Path-1" stroke="#FFFFFF" stroke-width="2"></path>
                <polygon id="Rectangle-3" fill="#FFFFFF" points="14.9523306 7.06260709 16.9046613 11.6336607 14.9610141 12.5327136 13 7.70521817"></polygon>
                <path d="M7.68050134,12.1660097 C11.5815503,10.1930008 14.484694,7.99048246 14.1648542,7.24654731 C13.8450143,6.50261215 10.4233079,7.49897327 6.52225885,9.47198215 C2.62120984,11.444991 -0.281933811,13.6475093 0.0379060185,14.3914445 C0.357745848,15.1353797 3.77945232,14.1390185 7.68050134,12.1660097 L7.68050134,12.1660097 Z" id="Oval-5" fill="#FFFFFF"></path>
                <path d="M20.857056,5.56600356 C24.758105,3.59299468 27.6612487,1.39047636 27.3414089,0.646541203 C27.021569,-0.0973939531 23.5998626,0.898967164 19.6988136,2.87197604 C15.7977645,4.84498492 12.8946209,7.04750324 13.2144607,7.7914384 C13.5343005,8.53537355 16.956007,7.53901244 20.857056,5.56600356 L20.857056,5.56600356 Z" id="Oval-5" fill="#FFFFFF"></path>
                <path d="M41.3542528,21.5349863 C41.2410285,21.4828515 41.1211735,21.428583 40.995009,21.3724735 C40.24197,21.0375727 39.4141593,20.7031061 38.534889,20.3907242 C36.7038566,19.740206 34.8952546,19.2713816 33.1852772,19.0633477 C32.1730244,18.9401981 31.2155085,18.9119817 30.3208978,18.9903886 C28.3231202,19.1654811 25.9495169,19.6227362 24.1361513,20.2193855 C23.9381917,20.2845199 23.7405714,20.3517705 23.5433801,20.4210311 L33.1591283,11.2393346 C34.4430391,10.0133791 37.0270242,9.18557018 38.7829497,9.43747603 L38.7829497,9.43747603 L47.9363319,10.7506242 C51.0710839,11.2003371 51.5209868,12.7356279 49.1244503,14.8098421 L41.3542508,21.5349881 L41.3542528,21.5349863 Z" id="Rectangle-7" stroke="#FFFFFF" stroke-width="2"></path>
                <path d="M23.203619,28.5028943 C23.203619,28.5028943 24.6165764,26.6307821 26.7120796,26.5413009 C28.8075829,26.4518197 30.200803,27.9032121 30.200803,27.9032121" id="Path-26" stroke="#FFFFFF" stroke-width="1.8" stroke-linecap="round" stroke-linejoin="round"></path>
                <path d="M36.7652789,28.597727 C36.7652789,28.597727 37.7173706,26.802927 39.71044,26.7134458 C40.2465188,26.6893779 41.1972967,27.2881567 41.6239408,27.3999663" id="Path-26" stroke="#FFFFFF" stroke-width="1.8" stroke-linecap="round" stroke-linejoin="round" transform="translate(39.194610, 27.655234) rotate(-348.000000) translate(-39.194610, -27.655234) "></path>
                <path d="M36.0040134,33.1257482 C35.880748,34.6997356 35.0689215,35.9249188 33.9177744,36.0749499 C32.7992818,36.220725 31.6870297,35.3089162 31.086998,33.8980979 C30.9617585,33.6036299 30.9331761,33.4779146 30.9331761,33.4779146 C30.845701,33.2024239 31.0069354,32.9567888 31.2768048,32.9297216 C31.2768048,32.9297216 31.4546748,32.915611 31.7775516,32.8735299 C32.6686826,32.7573872 35.0607628,32.3993026 35.0607628,32.3993026 L35.4881395,32.3425603 C35.7729375,32.304748 36.0102056,32.5008485 36.0135171,32.7888376 C36.0135171,32.7888376 36.025515,32.8511919 36.0040134,33.1257482 Z" id="Oval-11" fill="#FFFFFF" transform="translate(33.461791, 34.213771) rotate(-352.000000) translate(-33.461791, -34.213771) "></path>
                <path d="M41.7648858,20.9669106 C45.7885702,30.3060935 41.6873281,41.2169626 32.4242577,45.5440536 C22.9931502,49.9496404 11.7826076,45.8621097 7.38480993,36.4142984 C2.98701227,26.966487 7.0673161,15.7360889 16.4984236,11.3305021 C21.8200132,8.84460901 27.7081545,9.06282682 32.6192309,11.42233 L31.7531165,13.2250629 C27.2319843,11.0529065 21.9766913,10.9788739 17.3448892,13.142544 C8.91404653,17.0808736 5.26567187,27.1224542 9.19799765,35.5702899 C13.1294306,44.0162076 23.1488697,47.6694442 31.5777921,43.7320117 C39.8411383,39.8719254 43.532918,30.125222 39.9281072,21.7582665 L41.7648858,20.9669106 Z" id="Oval-1" fill="#FFFFFF" fill-rule="nonzero"></path>
            </g>
        </g>
    </g>
</svg>